<svg xmlns="http://www.w3.org/2000/svg" xmlns:xlink="http://www.w3.org/1999/xlink" xmlns:lucid="lucid" width="1420" height="1120.05"><g transform="translate(-159.99999999999997 -238.80434811507985)" lucid:page-tab-id="SsqXr-ThM55I"><path d="M0 0h1760v1360H0z" fill="#fff"/><path d="M620 523c0-1.66 1.34-3 3-3h934c1.66 0 3 1.34 3 3v534c0 1.66-1.34 3-3 3H623c-1.66 0-3-1.34-3-3z" stroke="#e5e5e5" stroke-width="3" fill="#e5e5e5"/><path d="M1477 1212.92c1.66-.08 3 1.2 3 2.86v54c0 1.66-1.34 3-3 3H183c-1.66 0-1.66-.06 0-.14z" stroke="#e5e5e5" stroke-width="3" fill="#e5e5e5" fill-opacity=".58"/><path d="M640 543c0-1.66 1.34-3 3-3h374c1.66 0 3 1.34 3 3v494c0 1.66-1.34 3-3 3H643c-1.66 0-3-1.34-3-3z" stroke="#19967d" stroke-width="3" fill="#19967d"/><use xlink:href="#a" transform="matrix(1,0,0,1,652,552) translate(91.1172839506173 17.77777777777778)"/><path d="M659.35 683c0-1.66 1.35-3 3-3h314c1.66 0 3 1.34 3 3v334c0 1.66-1.34 3-3 3h-314c-1.65 0-3-1.34-3-3z" stroke="#19967d" stroke-width="3" fill="#5abaa7"/><use xlink:href="#b" transform="matrix(1,0,0,1,671.3537857144561,692) translate(9.296296296296333 17.77777777777778)"/><path d="M680 803c0-1.66 1.34-3 3-3h194c1.66 0 3 1.34 3 3v194c0 1.66-1.34 3-3 3H683c-1.66 0-3-1.34-3-3z" stroke="#99d5ca" stroke-width="3" fill="#99d5ca"/><use xlink:href="#c" transform="matrix(1,0,0,1,692,812) translate(48.376543209876544 17.77777777777778)"/><path d="M180 543c0-1.66 1.34-3 3-3h374c1.66 0 3 1.34 3 3v494c0 1.66-1.34 3-3 3H183c-1.66 0-3-1.34-3-3z" stroke="#834187" stroke-width="3" fill="#834187"/><use xlink:href="#d" transform="matrix(1,0,0,1,192,552) translate(88.64814814814817 17.77777777777778)"/><path d="M199.35 683c0-1.66 1.35-3 3-3h314c1.66 0 3 1.34 3 3v244.17c0 1.66-1.34 3-3 3h-314c-1.65 0-3-1.34-3-3z" stroke="#b391b5" stroke-width="3" fill="#b391b5"/><use xlink:href="#e" transform="matrix(1,0,0,1,211.35378571445614,692) translate(7.537037037037095 17.77777777777778)"/><path d="M199.35 607.18c0-1.65 1.35-3 3-3h154c1.66 0 3 1.35 3 3v54c0 1.66-1.34 3-3 3h-154c-1.65 0-3-1.34-3-3z" stroke="#b391b5" stroke-width="3" fill="#b391b5"/><use xlink:href="#f" transform="matrix(1,0,0,1,211.35378571445614,616.1840714301054) translate(20.53086419753086 22.27777777777778)"/><path d="M220 803c0-1.66 1.34-3 3-3h154c1.66 0 3 1.34 3 3v106.1c0 1.65-1.34 3-3 3H223c-1.66 0-3-1.35-3-3z" stroke="#d1bcd2" stroke-width="3" fill="#d1bcd2"/><use xlink:href="#g" transform="matrix(1,0,0,1,232,812) translate(32.29012345679012 17.77777777777778)"/><use xlink:href="#h" transform="matrix(1,0,0,1,232,812) translate(5.972222222222221 42.666666666666664)"/><path d="M220 733c0-1.66 1.34-3 3-3h234c1.66 0 3 1.34 3 3v44.4c0 1.64-1.34 3-3 3H223c-1.66 0-3-1.36-3-3z" stroke="#d1bcd2" stroke-width="3" fill="#d1bcd2"/><use xlink:href="#i" transform="matrix(1,0,0,1,232,741.9931922049565) translate(-2.3086419753086034 17.944444444444443)"/><path d="M659.35 607.18c0-1.65 1.35-3 3-3h154c1.66 0 3 1.35 3 3v54c0 1.66-1.34 3-3 3h-154c-1.65 0-3-1.34-3-3z" stroke="#5abaa7" stroke-width="3" fill="#5abaa7"/><use xlink:href="#f" transform="matrix(1,0,0,1,671.3537857144561,616.1840714301054) translate(20.53086419753086 22.27777777777778)"/><path d="M680 733c0-1.66 1.34-3 3-3h234c1.66 0 3 1.34 3 3v44.4c0 1.64-1.34 3-3 3H683c-1.66 0-3-1.36-3-3z" stroke="#99d5ca" stroke-width="3" fill="#99d5ca"/><use xlink:href="#i" transform="matrix(1,0,0,1,692,741.9931922049565) translate(-2.3086419753086034 17.944444444444443)"/><path d="M703 988.25c-1.66 0-3-1.34-3-3V847.13c0-1.66 1.34-3 3-3h24c1.66 0 3 1.34 3 3v138.12c0 1.66-1.34 3-3 3z" stroke="#5abaa7" fill="#fff" fill-opacity=".66"/><use xlink:href="#j" transform="matrix(6.123233995736766e-17,-1,1,6.123233995736766e-17,707,981.2519356680799) translate(0 14.222222222222221)"/><use xlink:href="#k" transform="matrix(6.123233995736766e-17,-1,1,6.123233995736766e-17,707,981.2519356680799) translate(29.629629629629626 14.222222222222221)"/><path d="M748 988.25c-1.66 0-3-1.34-3-3V847.13c0-1.66 1.34-3 3-3h24c1.66 0 3 1.34 3 3v138.12c0 1.66-1.34 3-3 3z" stroke="#5abaa7" fill="#fff" fill-opacity=".66"/><use xlink:href="#l" transform="matrix(6.123233995736766e-17,-1,1,6.123233995736766e-17,752,981.2519356680799) translate(0 14.222222222222221)"/><use xlink:href="#k" transform="matrix(6.123233995736766e-17,-1,1,6.123233995736766e-17,752,981.2519356680799) translate(61.13580246913579 14.222222222222221)"/><path d="M793 988.25c-1.66 0-3-1.34-3-3V847.13c0-1.66 1.34-3 3-3h24c1.66 0 3 1.34 3 3v138.12c0 1.66-1.34 3-3 3z" stroke="#5abaa7" fill="#fff" fill-opacity=".66"/><use xlink:href="#m" transform="matrix(6.123233995736766e-17,-1,1,6.123233995736766e-17,797,981.2519356680799) translate(0 14.222222222222221)"/><use xlink:href="#k" transform="matrix(6.123233995736766e-17,-1,1,6.123233995736766e-17,797,981.2519356680799) translate(51.259259259259245 14.222222222222221)"/><path d="M820 883c0-1.66 1.34-3 3-3h34c1.66 0 3 1.34 3 3v34c0 1.66-1.34 3-3 3h-34c-1.66 0-3-1.34-3-3z" stroke="#000" stroke-opacity="0" stroke-width="3" fill="#fff" fill-opacity="0"/><use xlink:href="#n" transform="matrix(1,0,0,1,825,885) translate(5.7407407407407405 19.65277777777778)"/><path d="M1100 543c0-1.66 1.34-3 3-3h374c1.66 0 3 1.34 3 3v494c0 1.66-1.34 3-3 3h-374c-1.66 0-3-1.34-3-3z" stroke="#0c7cba" stroke-width="3" fill="#0c7cba"/><use xlink:href="#a" transform="matrix(1,0,0,1,1112,552) translate(91.1172839506173 17.77777777777778)"/><path d="M1119.35 683c0-1.66 1.35-3 3-3h314c1.66 0 3 1.34 3 3v294.3c0 1.66-1.34 3-3 3h-314c-1.65 0-3-1.34-3-3z" stroke="#0c7cba" stroke-width="3" fill="#83bbe5"/><use xlink:href="#b" transform="matrix(1,0,0,1,1131.353785714456,692) translate(9.296296296296333 17.77777777777778)"/><path d="M1140 803c0-1.66 1.34-3 3-3h234.2c1.66 0 3 1.34 3 3v152.8c0 1.66-1.34 3-3 3H1143c-1.66 0-3-1.34-3-3z" stroke="#b2d6ef" stroke-width="3" fill="#b2d6ef"/><use xlink:href="#c" transform="matrix(1,0,0,1,1152,811.9999999999999) translate(68.37654320987654 17.77777777777778)"/><path d="M1119.35 607.18c0-1.65 1.35-3 3-3h154c1.66 0 3 1.35 3 3v54c0 1.66-1.34 3-3 3h-154c-1.65 0-3-1.34-3-3z" stroke="#83bbe5" stroke-width="3" fill="#83bbe5"/><use xlink:href="#f" transform="matrix(1,0,0,1,1131.353785714456,616.1840714301054) translate(20.53086419753086 22.27777777777778)"/><path d="M1140 733c0-1.66 1.34-3 3-3h234c1.66 0 3 1.34 3 3v44.4c0 1.64-1.34 3-3 3h-234c-1.66 0-3-1.36-3-3z" stroke="#b2d6ef" stroke-width="3" fill="#b2d6ef"/><use xlink:href="#i" transform="matrix(1,0,0,1,1152,741.9931922049565) translate(-2.3086419753086034 17.944444444444443)"/><path d="M1160 863c0-1.66 1.34-3 3-3h154c1.66 0 3 1.34 3 3v71.33c0 1.66-1.34 3-3 3h-154c-1.66 0-3-1.34-3-3z" stroke="#0c7cba" fill="#fff" fill-opacity=".66"/><use xlink:href="#o" transform="matrix(1,0,0,1,1172,872) translate(7.845679012345684 17.77777777777778)"/><use xlink:href="#p" transform="matrix(1,0,0,1,1172,872) translate(71.85802469135803 17.77777777777778)"/><use xlink:href="#q" transform="matrix(1,0,0,1,1172,872) translate(34.11111111111111 44.44444444444444)"/><path d="M353.9 891c0-1.66 1.34-3 3-3h14c1.66 0 3 1.34 3 3v14c0 1.66-1.34 3-3 3h-14c-1.66 0-3-1.34-3-3z" stroke="#834187" fill="#d1bcd2"/><path d="M349.9 887c0-1.66 1.34-3 3-3h14c1.66 0 3 1.34 3 3v14c0 1.66-1.34 3-3 3h-14c-1.66 0-3-1.34-3-3z" stroke="#834187" fill="#d1bcd2"/><path d="M345.9 883c0-1.66 1.34-3 3-3h14c1.66 0 3 1.34 3 3v14c0 1.66-1.34 3-3 3h-14c-1.66 0-3-1.34-3-3zM492.13 906.47c0-1.65 1.34-3 3-3h14c1.65 0 3 1.35 3 3v14c0 1.66-1.35 3-3 3h-14c-1.66 0-3-1.34-3-3z" stroke="#834187" fill="#d1bcd2"/><path d="M488.13 902.47c0-1.65 1.34-3 3-3h14c1.65 0 3 1.35 3 3v14c0 1.66-1.35 3-3 3h-14c-1.66 0-3-1.34-3-3z" stroke="#834187" fill="#d1bcd2"/><path d="M484.13 898.47c0-1.65 1.34-3 3-3h14c1.65 0 3 1.35 3 3v14c0 1.66-1.35 3-3 3h-14c-1.66 0-3-1.34-3-3z" stroke="#834187" fill="#d1bcd2"/><path d="M853.16 977.2c0-1.67 1.34-3 3-3h14c1.65 0 3 1.33 3 3v14c0 1.65-1.35 3-3 3h-14c-1.66 0-3-1.35-3-3z" stroke="#19967d" fill="#99d5ca"/><path d="M849.16 973.2c0-1.67 1.34-3 3-3h14c1.65 0 3 1.33 3 3v14c0 1.65-1.35 3-3 3h-14c-1.66 0-3-1.35-3-3z" stroke="#19967d" fill="#99d5ca"/><path d="M845.16 969.2c0-1.67 1.34-3 3-3h14c1.65 0 3 1.33 3 3v14c0 1.65-1.35 3-3 3h-14c-1.66 0-3-1.35-3-3zM950.06 993.7c0-1.66 1.35-3 3-3h14c1.66 0 3 1.34 3 3v14c0 1.65-1.34 3-3 3h-14c-1.65 0-3-1.35-3-3z" stroke="#19967d" fill="#99d5ca"/><path d="M946.06 989.7c0-1.66 1.35-3 3-3h14c1.66 0 3 1.34 3 3v14c0 1.65-1.34 3-3 3h-14c-1.65 0-3-1.35-3-3z" stroke="#19967d" fill="#99d5ca"/><path d="M942.06 985.7c0-1.66 1.35-3 3-3h14c1.66 0 3 1.34 3 3v14c0 1.65-1.34 3-3 3h-14c-1.65 0-3-1.35-3-3z" stroke="#19967d" fill="#99d5ca"/><path d="M1352.13 935.13c0-1.66 1.34-3 3-3h14c1.65 0 3 1.34 3 3v14c0 1.65-1.35 3-3 3h-14c-1.66 0-3-1.35-3-3z" stroke="#0c7cba" fill="#b2d6ef"/><path d="M1348.13 931.13c0-1.66 1.34-3 3-3h14c1.65 0 3 1.34 3 3v14c0 1.65-1.35 3-3 3h-14c-1.66 0-3-1.35-3-3z" stroke="#0c7cba" fill="#b2d6ef"/><path d="M1344.13 927.13c0-1.66 1.34-3 3-3h14c1.65 0 3 1.34 3 3v14c0 1.65-1.35 3-3 3h-14c-1.66 0-3-1.35-3-3zM1411.1 956.8c0-1.67 1.34-3 3-3h14c1.65 0 3 1.33 3 3v14c0 1.64-1.35 3-3 3h-14c-1.66 0-3-1.36-3-3z" stroke="#0c7cba" fill="#b2d6ef"/><path d="M1407.1 952.8c0-1.67 1.34-3 3-3h14c1.65 0 3 1.33 3 3v14c0 1.64-1.35 3-3 3h-14c-1.66 0-3-1.36-3-3z" stroke="#0c7cba" fill="#b2d6ef"/><path d="M1403.1 948.8c0-1.67 1.34-3 3-3h14c1.65 0 3 1.33 3 3v14c0 1.64-1.35 3-3 3h-14c-1.66 0-3-1.36-3-3z" stroke="#0c7cba" fill="#b2d6ef"/><path d="M180 1086c0-3.3 2.7-6 6-6h368c3.3 0 6 2.7 6 6v62c0 3.3-2.7 6-6 6H186c-3.3 0-6-2.7-6-6z" stroke="#000" stroke-opacity="0" stroke-width="3" fill="#fff" fill-opacity="0"/><use xlink:href="#r" transform="matrix(1,0,0,1,184.99999999999997,1085) translate(79.20370370370371 21.333333333333332)"/><use xlink:href="#s" transform="matrix(1,0,0,1,184.99999999999997,1085) translate(157.05555555555554 21.333333333333332)"/><use xlink:href="#t" transform="matrix(1,0,0,1,184.99999999999997,1085) translate(197.05555555555554 21.333333333333332)"/><use xlink:href="#u" transform="matrix(1,0,0,1,184.99999999999997,1085) translate(115.0061728395062 46.222222222222214)"/><use xlink:href="#v" transform="matrix(1,0,0,1,184.99999999999997,1085) translate(181.0308641975309 46.222222222222214)"/><path d="M640 1086c0-3.3 2.7-6 6-6h368c3.3 0 6 2.7 6 6v62c0 3.3-2.7 6-6 6H646c-3.3 0-6-2.7-6-6z" stroke="#000" stroke-opacity="0" stroke-width="3" fill="#fff" fill-opacity="0"/><use xlink:href="#w" transform="matrix(1,0,0,1,645,1085) translate(86.68518518518519 21.333333333333332)"/><use xlink:href="#x" transform="matrix(1,0,0,1,645,1085) translate(164.53703703703704 21.333333333333332)"/><use xlink:href="#y" transform="matrix(1,0,0,1,645,1085) translate(128.31481481481484 46.222222222222214)"/><use xlink:href="#z" transform="matrix(1,0,0,1,645,1085) translate(171.67283950617286 46.222222222222214)"/><path d="M1100 1086c0-3.3 2.7-6 6-6h368c3.3 0 6 2.7 6 6v62c0 3.3-2.7 6-6 6h-368c-3.3 0-6-2.7-6-6z" stroke="#000" stroke-opacity="0" stroke-width="3" fill="#fff" fill-opacity="0"/><use xlink:href="#A" transform="matrix(1,0,0,1,1105,1085) translate(110.31481481481481 21.333333333333332)"/><use xlink:href="#B" transform="matrix(1,0,0,1,1105,1085) translate(188.16666666666666 21.333333333333332)"/><use xlink:href="#C" transform="matrix(1,0,0,1,1105,1085) translate(36.26543209876547 46.222222222222214)"/><use xlink:href="#D" transform="matrix(1,0,0,1,1105,1085) translate(91.37654320987656 46.222222222222214)"/><use xlink:href="#E" transform="matrix(1,0,0,1,1105,1085) translate(141.35185185185185 46.222222222222214)"/><use xlink:href="#F" transform="matrix(1,0,0,1,1105,1085) translate(230.19135802469134 46.222222222222214)"/><use xlink:href="#G" transform="matrix(1,0,0,1,1105,1085) translate(263.7222222222222 46.222222222222214)"/><path d="M415.45 1248.53c0 25.1-20.35 45.44-45.45 45.44s-45.45-20.35-45.45-45.44c0-25.1 20.35-45.45 45.45-45.45s45.45 20.35 45.45 45.45z" stroke="#834187" stroke-width="3" fill="#834187"/><use xlink:href="#H" transform="matrix(1,0,0,1,329.55498061008495,1208.0805161555404) translate(28.771604938271604 45.62152777777778)"/><path d="M875.45 1248.53c0 25.1-20.35 45.44-45.45 45.44s-45.45-20.35-45.45-45.44c0-25.1 20.35-45.45 45.45-45.45s45.45 20.35 45.45 45.45z" stroke="#19967d" stroke-width="3" fill="#19967d"/><g><use xlink:href="#I" transform="matrix(1,0,0,1,789.554980610085,1208.0805161555404) translate(22.598765432098766 45.62152777777778)"/></g><path d="M1335.45 1248.53c0 25.1-20.35 45.44-45.45 45.44s-45.45-20.35-45.45-45.44c0-25.1 20.35-45.45 45.45-45.45s45.45 20.35 45.45 45.45z" stroke="#0c7cba" stroke-width="3" fill="#0c7cba"/><g><use xlink:href="#J" transform="matrix(1,0,0,1,1249.5549806100848,1208.0805161555404) translate(22.598765432098766 45.62152777777778)"/></g><path d="M180.4 261.8c0-1.65 1.34-3 3-3h1294.1c1.65 0 3 1.35 3 3v71.34c0 1.65-1.35 3-3 3H183.4c-1.66 0-3-1.35-3-3z" stroke="#834187" stroke-width="3" fill="#834187"/><g><use xlink:href="#K" transform="matrix(1,0,0,1,192.4016527883099,270.80434811507985) translate(540.7530864197531 17.77777777777778)"/><use xlink:href="#L" transform="matrix(1,0,0,1,192.4016527883099,270.80434811507985) translate(605.6296296296297 17.77777777777778)"/><use xlink:href="#M" transform="matrix(1,0,0,1,192.4016527883099,270.80434811507985) translate(689.4567901234568 17.77777777777778)"/><use xlink:href="#N" transform="matrix(1,0,0,1,192.4016527883099,270.80434811507985) translate(491.2160493827161 40.888888888888886)"/><use xlink:href="#O" transform="matrix(1,0,0,1,192.4016527883099,270.80434811507985) translate(533.5370370370371 40.888888888888886)"/><use xlink:href="#P" transform="matrix(1,0,0,1,192.4016527883099,270.80434811507985) translate(629.0925925925926 40.888888888888886)"/><use xlink:href="#Q" transform="matrix(1,0,0,1,192.4016527883099,270.80434811507985) translate(720.6975308641975 40.888888888888886)"/></g><g><path d="M387 352.2c1.66 0 3 1.34 3 3v118c0 1.65 1.34 3 3 3h14c1.66 0 2 .9.77 2l-35.54 32c-1.23 1.1-3.23 1.1-4.46 0l-35.54-32c-1.23-1.1-.9-2 .77-2h14c1.66 0 3-1.35 3-3v-118c0-1.66 1.34-3 3-3z" stroke="#834187" stroke-width="3" fill="#834187"/></g><g><path d="M847 352.2c1.66 0 3 1.34 3 3v118c0 1.65 1.34 3 3 3h14c1.66 0 2 .9.77 2l-35.54 32c-1.23 1.1-3.23 1.1-4.46 0l-35.54-32c-1.23-1.1-.9-2 .77-2h14c1.66 0 3-1.35 3-3v-118c0-1.66 1.34-3 3-3z" stroke="#19967d" stroke-width="3" fill="#19967d"/></g><g><path d="M1307 352.2c1.66 0 3 1.34 3 3v118c0 1.65 1.34 3 3 3h14c1.66 0 2 .9.77 2l-35.54 32c-1.23 1.1-3.23 1.1-4.46 0l-35.54-32c-1.23-1.1-.9-2 .77-2h14c1.66 0 3-1.35 3-3v-118c0-1.66 1.34-3 3-3z" stroke="#0c7cba" stroke-width="3" fill="#0c7cba"/></g><path d="M1119.05 1310.86c0-3.32 2.7-6 6-6h350.75c3.3 0 6 2.68 6 6v22c0 3.3-2.7 6-6 6h-350.75c-3.3 0-6-2.7-6-6z" stroke="#000" stroke-opacity="0" stroke-width="3" fill="#fff" fill-opacity="0"/><g><use xlink:href="#R" transform="matrix(1,0,0,1,1124.049062380126,1309.8569448305484) translate(100.94444444444449 17.5)"/><use xlink:href="#S" transform="matrix(1,0,0,1,1124.049062380126,1309.8569448305484) translate(189.7777777777778 17.5)"/><use xlink:href="#T" transform="matrix(1,0,0,1,1124.049062380126,1309.8569448305484) translate(217.55555555555557 17.5)"/><use xlink:href="#U" transform="matrix(1,0,0,1,1124.049062380126,1309.8569448305484) translate(277.55555555555554 17.5)"/></g><path d="M400 380c0-3.3 2.7-6 6-6h203.24c3.32 0 6 2.7 6 6v78c0 3.3-2.68 6-6 6H406c-3.3 0-6-2.7-6-6z" stroke="#000" stroke-opacity="0" stroke-width="3" fill="#fff" fill-opacity="0"/><g><use xlink:href="#V" transform="matrix(1,0,0,1,405,379) translate(0 21)"/><use xlink:href="#W" transform="matrix(1,0,0,1,405,379) translate(107.49999999999999 21)"/><use xlink:href="#X" transform="matrix(1,0,0,1,405,379) translate(0 44.99999999999999)"/><use xlink:href="#Y" transform="matrix(1,0,0,1,405,379) translate(93.27777777777777 44.99999999999999)"/><use xlink:href="#Z" transform="matrix(1,0,0,1,405,379) translate(131 44.99999999999999)"/><use xlink:href="#aa" transform="matrix(1,0,0,1,405,379) translate(0 68.99999999999999)"/><use xlink:href="#ab" transform="matrix(1,0,0,1,405,379) translate(92.05555555555554 68.99999999999999)"/></g><path d="M860 372c0-3.3 2.7-6 6-6h228c3.3 0 6 2.7 6 6v94c0 3.3-2.7 6-6 6H866c-3.3 0-6-2.7-6-6z" stroke="#000" stroke-opacity="0" stroke-width="3" fill="#fff" fill-opacity="0"/><g><use xlink:href="#ac" transform="matrix(1,0,0,1,865,371) translate(0 28)"/><use xlink:href="#ad" transform="matrix(1,0,0,1,865,371) translate(107.49999999999999 28)"/><use xlink:href="#ae" transform="matrix(1,0,0,1,865,371) translate(0 52)"/><use xlink:href="#af" transform="matrix(1,0,0,1,865,371) translate(77.7222222222222 52)"/><use xlink:href="#ag" transform="matrix(1,0,0,1,865,371) translate(0 76)"/><use xlink:href="#ah" transform="matrix(1,0,0,1,865,371) translate(166.33333333333331 76)"/></g><path d="M1320 372c0-3.3 2.7-6 6-6h228c3.3 0 6 2.7 6 6v94c0 3.3-2.7 6-6 6h-228c-3.3 0-6-2.7-6-6z" stroke="#000" stroke-opacity="0" stroke-width="3" fill="#fff" fill-opacity="0"/><g><use xlink:href="#ai" transform="matrix(1,0,0,1,1325,371) translate(0 28)"/><use xlink:href="#aj" transform="matrix(1,0,0,1,1325,371) translate(107.49999999999999 28)"/><use xlink:href="#ak" transform="matrix(1,0,0,1,1325,371) translate(0 52)"/><use xlink:href="#al" transform="matrix(1,0,0,1,1325,371) translate(77.7222222222222 52)"/><use xlink:href="#am" transform="matrix(1,0,0,1,1325,371) translate(0 76)"/><use xlink:href="#an" transform="matrix(1,0,0,1,1325,371) translate(166.33333333333331 76)"/></g><g><path d="M1503 1060c-1.66 0-3-1.34-3-3V523c0-1.66 1.34-3 3-3h54c1.66 0 3 1.34 3 3v534c0 1.66-1.34 3-3 3z" stroke="#000" stroke-opacity="0" stroke-width="3" fill="#fff" fill-opacity="0"/></g><g><use xlink:href="#ao" transform="matrix(6.123233995736766e-17,-1,1,6.123233995736766e-17,1505,1055) translate(183.4567901234568 30.27777777777778)"/></g><defs><path fill="#fff" d="M240-174c0 40-23 61-54 70L253 0h-59l-57-94H76V0H24v-248c93 4 217-23 216 74zM76-134c48-2 112 12 112-38 0-48-66-32-112-35v73" id="ap"/><path fill="#fff" d="M185-48c-13 30-37 53-82 52C43 2 14-33 14-96s30-98 90-98c62 0 83 45 84 108H66c0 31 8 55 39 56 18 0 30-7 34-22zm-45-69c5-46-57-63-70-21-2 6-4 13-4 21h74" id="aq"/><path fill="#fff" d="M137-138c1-29-70-34-71-4 15 46 118 7 119 86 1 83-164 76-172 9l43-7c4 19 20 25 44 25 33 8 57-30 24-41C81-84 22-81 20-136c-2-80 154-74 161-7" id="ar"/><path fill="#fff" d="M110-194c64 0 96 36 96 99 0 64-35 99-97 99-61 0-95-36-95-99 0-62 34-99 96-99zm-1 164c35 0 45-28 45-65 0-40-10-65-43-65-34 0-45 26-45 65 0 36 10 65 43 65" id="as"/><path fill="#fff" d="M85 4C-2 5 27-109 22-190h50c7 57-23 150 33 157 60-5 35-97 40-157h50l1 190h-47c-2-12 1-28-3-38-12 25-28 42-61 42" id="at"/><path fill="#fff" d="M135-150c-39-12-60 13-60 57V0H25l-1-190h47c2 13-1 29 3 40 6-28 27-53 61-41v41" id="au"/><path fill="#fff" d="M190-63c-7 42-38 67-86 67-59 0-84-38-90-98-12-110 154-137 174-36l-49 2c-2-19-15-32-35-32-30 0-35 28-38 64-6 74 65 87 74 30" id="av"/><path fill="#fff" d="M24 0v-248h195v40H76v63h132v40H76v65h150V0H24" id="aw"/><path fill="#fff" d="M128 0H69L1-190h53L99-40l48-150h52" id="ax"/><path fill="#fff" d="M135-194c87-1 58 113 63 194h-50c-7-57 23-157-34-157-59 0-34 97-39 157H25l-1-190h47c2 12-1 28 3 38 12-26 28-41 61-42" id="ay"/><path fill="#fff" d="M115-3C79 11 28 4 28-45v-112H4v-33h27l15-45h31v45h36v33H77v99c-1 23 16 31 38 25v30" id="az"/><g id="a"><use transform="matrix(0.06172839506172839,0,0,0.06172839506172839,0,0)" xlink:href="#ap"/><use transform="matrix(0.06172839506172839,0,0,0.06172839506172839,15.987654320987653,0)" xlink:href="#aq"/><use transform="matrix(0.06172839506172839,0,0,0.06172839506172839,28.333333333333332,0)" xlink:href="#ar"/><use transform="matrix(0.06172839506172839,0,0,0.06172839506172839,40.67901234567901,0)" xlink:href="#as"/><use transform="matrix(0.06172839506172839,0,0,0.06172839506172839,54.19753086419753,0)" xlink:href="#at"/><use transform="matrix(0.06172839506172839,0,0,0.06172839506172839,67.71604938271605,0)" xlink:href="#au"/><use transform="matrix(0.06172839506172839,0,0,0.06172839506172839,76.35802469135803,0)" xlink:href="#av"/><use transform="matrix(0.06172839506172839,0,0,0.06172839506172839,88.70370370370371,0)" xlink:href="#aq"/><use transform="matrix(0.06172839506172839,0,0,0.06172839506172839,101.0493827160494,0)" xlink:href="#aw"/><use transform="matrix(0.06172839506172839,0,0,0.06172839506172839,115.8641975308642,0)" xlink:href="#ax"/><use transform="matrix(0.06172839506172839,0,0,0.06172839506172839,128.20987654320987,0)" xlink:href="#aq"/><use transform="matrix(0.06172839506172839,0,0,0.06172839506172839,140.55555555555554,0)" xlink:href="#ay"/><use transform="matrix(0.06172839506172839,0,0,0.06172839506172839,154.07407407407405,0)" xlink:href="#az"/><use transform="matrix(0.06172839506172839,0,0,0.06172839506172839,161.41975308641972,0)" xlink:href="#ar"/></g><path fill="#fff" d="M33 0v-248h34V0H33" id="aA"/><path fill="#fff" d="M117-194c89-4 53 116 60 194h-32v-121c0-31-8-49-39-48C34-167 62-67 57 0H25l-1-190h30c1 10-1 24 2 32 11-22 29-35 61-36" id="aB"/><path fill="#fff" d="M59-47c-2 24 18 29 38 22v24C64 9 27 4 27-40v-127H5v-23h24l9-43h21v43h35v23H59v120" id="aC"/><path fill="#fff" d="M114-163C36-179 61-72 57 0H25l-1-190h30c1 12-1 29 2 39 6-27 23-49 58-41v29" id="aD"/><path fill="#fff" d="M84 4C-5 8 30-112 23-190h32v120c0 31 7 50 39 49 72-2 45-101 50-169h31l1 190h-30c-1-10 1-25-2-33-11 22-28 36-60 37" id="aE"/><path fill="#fff" d="M210-169c-67 3-38 105-44 169h-31v-121c0-29-5-50-35-48C34-165 62-65 56 0H25l-1-190h30c1 10-1 24 2 32 10-44 99-50 107 0 11-21 27-35 58-36 85-2 47 119 55 194h-31v-121c0-29-5-49-35-48" id="aF"/><path fill="#fff" d="M100-194c63 0 86 42 84 106H49c0 40 14 67 53 68 26 1 43-12 49-29l28 8c-11 28-37 45-77 45C44 4 14-33 15-96c1-61 26-98 85-98zm52 81c6-60-76-77-97-28-3 7-6 17-6 28h103" id="aG"/><path fill="#fff" d="M141-36C126-15 110 5 73 4 37 3 15-17 15-53c-1-64 63-63 125-63 3-35-9-54-41-54-24 1-41 7-42 31l-33-3c5-37 33-52 76-52 45 0 72 20 72 64v82c-1 20 7 32 28 27v20c-31 9-61-2-59-35zM48-53c0 20 12 33 32 33 41-3 63-29 60-74-43 2-92-5-92 41" id="aH"/><path fill="#fff" d="M24-231v-30h32v30H24zM24 0v-190h32V0H24" id="aI"/><path fill="#fff" d="M100-194c62-1 85 37 85 99 1 63-27 99-86 99S16-35 15-95c0-66 28-99 85-99zM99-20c44 1 53-31 53-75 0-43-8-75-51-75s-53 32-53 75 10 74 51 75" id="aJ"/><path fill="#fff" d="M30 0v-248h33v221h125V0H30" id="aK"/><path fill="#fff" d="M115-194c53 0 69 39 70 98 0 66-23 100-70 100C84 3 66-7 56-30L54 0H23l1-261h32v101c10-23 28-34 59-34zm-8 174c40 0 45-34 45-75 0-40-5-75-45-74-42 0-51 32-51 76 0 43 10 73 51 73" id="aL"/><path fill="#fff" d="M179-190L93 31C79 59 56 82 12 73V49c39 6 53-20 64-50L1-190h34L92-34l54-156h33" id="aM"/><path fill="#fff" d="M30 0v-248h187v28H63v79h144v27H63v87h162V0H30" id="aN"/><path fill="#fff" d="M108 0H70L1-190h34L89-25l56-165h34" id="aO"/><path fill="#fff" d="M135-143c-3-34-86-38-87 0 15 53 115 12 119 90S17 21 10-45l28-5c4 36 97 45 98 0-10-56-113-15-118-90-4-57 82-63 122-42 12 7 21 19 24 35" id="aP"/><g id="b"><use transform="matrix(0.06172839506172839,0,0,0.06172839506172839,0,0)" xlink:href="#aA"/><use transform="matrix(0.06172839506172839,0,0,0.06172839506172839,6.172839506172839,0)" xlink:href="#aB"/><use transform="matrix(0.06172839506172839,0,0,0.06172839506172839,18.51851851851852,0)" xlink:href="#aC"/><use transform="matrix(0.06172839506172839,0,0,0.06172839506172839,24.691358024691358,0)" xlink:href="#aD"/><use transform="matrix(0.06172839506172839,0,0,0.06172839506172839,32.03703703703704,0)" xlink:href="#aE"/><use transform="matrix(0.06172839506172839,0,0,0.06172839506172839,44.382716049382715,0)" xlink:href="#aF"/><use transform="matrix(0.06172839506172839,0,0,0.06172839506172839,62.839506172839506,0)" xlink:href="#aG"/><use transform="matrix(0.06172839506172839,0,0,0.06172839506172839,75.18518518518519,0)" xlink:href="#aB"/><use transform="matrix(0.06172839506172839,0,0,0.06172839506172839,87.53086419753087,0)" xlink:href="#aC"/><use transform="matrix(0.06172839506172839,0,0,0.06172839506172839,93.70370370370371,0)" xlink:href="#aH"/><use transform="matrix(0.06172839506172839,0,0,0.06172839506172839,106.0493827160494,0)" xlink:href="#aC"/><use transform="matrix(0.06172839506172839,0,0,0.06172839506172839,112.22222222222223,0)" xlink:href="#aI"/><use transform="matrix(0.06172839506172839,0,0,0.06172839506172839,117.09876543209877,0)" xlink:href="#aJ"/><use transform="matrix(0.06172839506172839,0,0,0.06172839506172839,129.44444444444446,0)" xlink:href="#aB"/><use transform="matrix(0.06172839506172839,0,0,0.06172839506172839,141.79012345679013,0)" xlink:href="#aK"/><use transform="matrix(0.06172839506172839,0,0,0.06172839506172839,154.1358024691358,0)" xlink:href="#aI"/><use transform="matrix(0.06172839506172839,0,0,0.06172839506172839,159.01234567901233,0)" xlink:href="#aL"/><use transform="matrix(0.06172839506172839,0,0,0.06172839506172839,171.358024691358,0)" xlink:href="#aD"/><use transform="matrix(0.06172839506172839,0,0,0.06172839506172839,178.70370370370367,0)" xlink:href="#aH"/><use transform="matrix(0.06172839506172839,0,0,0.06172839506172839,191.04938271604934,0)" xlink:href="#aD"/><use transform="matrix(0.06172839506172839,0,0,0.06172839506172839,198.395061728395,0)" xlink:href="#aM"/><use transform="matrix(0.06172839506172839,0,0,0.06172839506172839,209.50617283950612,0)" xlink:href="#aN"/><use transform="matrix(0.06172839506172839,0,0,0.06172839506172839,224.32098765432093,0)" xlink:href="#aO"/><use transform="matrix(0.06172839506172839,0,0,0.06172839506172839,235.43209876543204,0)" xlink:href="#aG"/><use transform="matrix(0.06172839506172839,0,0,0.06172839506172839,247.77777777777771,0)" xlink:href="#aB"/><use transform="matrix(0.06172839506172839,0,0,0.06172839506172839,260.1234567901234,0)" xlink:href="#aC"/><use transform="matrix(0.06172839506172839,0,0,0.06172839506172839,266.29629629629625,0)" xlink:href="#aP"/></g><path fill="#fff" d="M160-131c35 5 61 23 61 61C221 17 115-2 30 0v-248c76 3 177-17 177 60 0 33-19 50-47 57zm-97-11c50-1 110 9 110-42 0-47-63-36-110-37v79zm0 115c55-2 124 14 124-45 0-56-70-42-124-44v89" id="aQ"/><path fill="#fff" d="M96-169c-40 0-48 33-48 73s9 75 48 75c24 0 41-14 43-38l32 2c-6 37-31 61-74 61-59 0-76-41-82-99-10-93 101-131 147-64 4 7 5 14 7 22l-32 3c-4-21-16-35-41-35" id="aR"/><path fill="#fff" d="M106-169C34-169 62-67 57 0H25v-261h32l-1 103c12-21 28-36 61-36 89 0 53 116 60 194h-32v-121c2-32-8-49-39-48" id="aS"/><g id="c"><use transform="matrix(0.06172839506172839,0,0,0.06172839506172839,0,0)" xlink:href="#aQ"/><use transform="matrix(0.06172839506172839,0,0,0.06172839506172839,14.814814814814813,0)" xlink:href="#aH"/><use transform="matrix(0.06172839506172839,0,0,0.06172839506172839,27.160493827160494,0)" xlink:href="#aC"/><use transform="matrix(0.06172839506172839,0,0,0.06172839506172839,33.333333333333336,0)" xlink:href="#aR"/><use transform="matrix(0.06172839506172839,0,0,0.06172839506172839,44.44444444444444,0)" xlink:href="#aS"/><use transform="matrix(0.06172839506172839,0,0,0.06172839506172839,56.79012345679012,0)" xlink:href="#aG"/><use transform="matrix(0.06172839506172839,0,0,0.06172839506172839,69.1358024691358,0)" xlink:href="#aP"/></g><path fill="#fff" d="M230 0l2-204L168 0h-37L68-204 70 0H24v-248h70l56 185 57-185h69V0h-46" id="aT"/><path fill="#fff" d="M25-224v-37h50v37H25zM25 0v-190h50V0H25" id="aU"/><g id="d"><use transform="matrix(0.06172839506172839,0,0,0.06172839506172839,0,0)" xlink:href="#ap"/><use transform="matrix(0.06172839506172839,0,0,0.06172839506172839,15.987654320987653,0)" xlink:href="#aq"/><use transform="matrix(0.06172839506172839,0,0,0.06172839506172839,28.333333333333332,0)" xlink:href="#ar"/><use transform="matrix(0.06172839506172839,0,0,0.06172839506172839,40.67901234567901,0)" xlink:href="#as"/><use transform="matrix(0.06172839506172839,0,0,0.06172839506172839,54.19753086419753,0)" xlink:href="#at"/><use transform="matrix(0.06172839506172839,0,0,0.06172839506172839,67.71604938271605,0)" xlink:href="#au"/><use transform="matrix(0.06172839506172839,0,0,0.06172839506172839,76.35802469135803,0)" xlink:href="#av"/><use transform="matrix(0.06172839506172839,0,0,0.06172839506172839,88.70370370370371,0)" xlink:href="#aq"/><use transform="matrix(0.06172839506172839,0,0,0.06172839506172839,101.0493827160494,0)" xlink:href="#aT"/><use transform="matrix(0.06172839506172839,0,0,0.06172839506172839,119.50617283950618,0)" xlink:href="#aq"/><use transform="matrix(0.06172839506172839,0,0,0.06172839506172839,131.85185185185185,0)" xlink:href="#az"/><use transform="matrix(0.06172839506172839,0,0,0.06172839506172839,139.19753086419752,0)" xlink:href="#au"/><use transform="matrix(0.06172839506172839,0,0,0.06172839506172839,147.8395061728395,0)" xlink:href="#aU"/><use transform="matrix(0.06172839506172839,0,0,0.06172839506172839,154.01234567901233,0)" xlink:href="#av"/><use transform="matrix(0.06172839506172839,0,0,0.06172839506172839,166.358024691358,0)" xlink:href="#ar"/></g><path fill="#fff" d="M240 0l2-218c-23 76-54 145-80 218h-23L58-218 59 0H30v-248h44l77 211c21-75 51-140 76-211h43V0h-30" id="aV"/><g id="e"><use transform="matrix(0.06172839506172839,0,0,0.06172839506172839,0,0)" xlink:href="#aA"/><use transform="matrix(0.06172839506172839,0,0,0.06172839506172839,6.172839506172839,0)" xlink:href="#aB"/><use transform="matrix(0.06172839506172839,0,0,0.06172839506172839,18.51851851851852,0)" xlink:href="#aC"/><use transform="matrix(0.06172839506172839,0,0,0.06172839506172839,24.691358024691358,0)" xlink:href="#aD"/><use transform="matrix(0.06172839506172839,0,0,0.06172839506172839,32.03703703703704,0)" xlink:href="#aE"/><use transform="matrix(0.06172839506172839,0,0,0.06172839506172839,44.382716049382715,0)" xlink:href="#aF"/><use transform="matrix(0.06172839506172839,0,0,0.06172839506172839,62.839506172839506,0)" xlink:href="#aG"/><use transform="matrix(0.06172839506172839,0,0,0.06172839506172839,75.18518518518519,0)" xlink:href="#aB"/><use transform="matrix(0.06172839506172839,0,0,0.06172839506172839,87.53086419753087,0)" xlink:href="#aC"/><use transform="matrix(0.06172839506172839,0,0,0.06172839506172839,93.70370370370371,0)" xlink:href="#aH"/><use transform="matrix(0.06172839506172839,0,0,0.06172839506172839,106.0493827160494,0)" xlink:href="#aC"/><use transform="matrix(0.06172839506172839,0,0,0.06172839506172839,112.22222222222223,0)" xlink:href="#aI"/><use transform="matrix(0.06172839506172839,0,0,0.06172839506172839,117.09876543209877,0)" xlink:href="#aJ"/><use transform="matrix(0.06172839506172839,0,0,0.06172839506172839,129.44444444444446,0)" xlink:href="#aB"/><use transform="matrix(0.06172839506172839,0,0,0.06172839506172839,141.79012345679013,0)" xlink:href="#aK"/><use transform="matrix(0.06172839506172839,0,0,0.06172839506172839,154.1358024691358,0)" xlink:href="#aI"/><use transform="matrix(0.06172839506172839,0,0,0.06172839506172839,159.01234567901233,0)" xlink:href="#aL"/><use transform="matrix(0.06172839506172839,0,0,0.06172839506172839,171.358024691358,0)" xlink:href="#aD"/><use transform="matrix(0.06172839506172839,0,0,0.06172839506172839,178.70370370370367,0)" xlink:href="#aH"/><use transform="matrix(0.06172839506172839,0,0,0.06172839506172839,191.04938271604934,0)" xlink:href="#aD"/><use transform="matrix(0.06172839506172839,0,0,0.06172839506172839,198.395061728395,0)" xlink:href="#aM"/><use transform="matrix(0.06172839506172839,0,0,0.06172839506172839,209.50617283950612,0)" xlink:href="#aV"/><use transform="matrix(0.06172839506172839,0,0,0.06172839506172839,227.9629629629629,0)" xlink:href="#aG"/><use transform="matrix(0.06172839506172839,0,0,0.06172839506172839,240.30864197530857,0)" xlink:href="#aC"/><use transform="matrix(0.06172839506172839,0,0,0.06172839506172839,246.4814814814814,0)" xlink:href="#aD"/><use transform="matrix(0.06172839506172839,0,0,0.06172839506172839,253.82716049382708,0)" xlink:href="#aI"/><use transform="matrix(0.06172839506172839,0,0,0.06172839506172839,258.70370370370364,0)" xlink:href="#aR"/><use transform="matrix(0.06172839506172839,0,0,0.06172839506172839,269.8148148148147,0)" xlink:href="#aP"/></g><path fill="#fff" d="M233-177c-1 41-23 64-60 70L243 0h-38l-65-103H63V0H30v-248c88 3 205-21 203 71zM63-129c60-2 137 13 137-47 0-61-80-42-137-45v92" id="aW"/><g id="f"><use transform="matrix(0.06172839506172839,0,0,0.06172839506172839,0,0)" xlink:href="#aW"/><use transform="matrix(0.06172839506172839,0,0,0.06172839506172839,15.987654320987653,0)" xlink:href="#aG"/><use transform="matrix(0.06172839506172839,0,0,0.06172839506172839,28.333333333333332,0)" xlink:href="#aP"/><use transform="matrix(0.06172839506172839,0,0,0.06172839506172839,39.44444444444444,0)" xlink:href="#aJ"/><use transform="matrix(0.06172839506172839,0,0,0.06172839506172839,51.79012345679012,0)" xlink:href="#aE"/><use transform="matrix(0.06172839506172839,0,0,0.06172839506172839,64.1358024691358,0)" xlink:href="#aD"/><use transform="matrix(0.06172839506172839,0,0,0.06172839506172839,71.48148148148148,0)" xlink:href="#aR"/><use transform="matrix(0.06172839506172839,0,0,0.06172839506172839,82.5925925925926,0)" xlink:href="#aG"/></g><g id="g"><use transform="matrix(0.06172839506172839,0,0,0.06172839506172839,0,0)" xlink:href="#aV"/><use transform="matrix(0.06172839506172839,0,0,0.06172839506172839,18.456790123456788,0)" xlink:href="#aG"/><use transform="matrix(0.06172839506172839,0,0,0.06172839506172839,30.80246913580247,0)" xlink:href="#aC"/><use transform="matrix(0.06172839506172839,0,0,0.06172839506172839,36.97530864197531,0)" xlink:href="#aD"/><use transform="matrix(0.06172839506172839,0,0,0.06172839506172839,44.32098765432099,0)" xlink:href="#aI"/><use transform="matrix(0.06172839506172839,0,0,0.06172839506172839,49.19753086419753,0)" xlink:href="#aR"/><use transform="matrix(0.06172839506172839,0,0,0.06172839506172839,60.308641975308646,0)" xlink:href="#aP"/></g><path fill="#fff" d="M87 75C49 33 22-17 22-94c0-76 28-126 65-167h31c-38 41-64 92-64 168S80 34 118 75H87" id="aX"/><path fill="#fff" d="M206 0h-36l-40-164L89 0H53L-1-190h32L70-26l43-164h34l41 164 42-164h31" id="aY"/><path fill="#fff" d="M16-82v-28h88v28H16" id="aZ"/><path fill="#fff" d="M85-194c31 0 48 13 60 33l-1-100h32l1 261h-30c-2-10 0-23-3-31C134-8 116 4 85 4 32 4 16-35 15-94c0-66 23-100 70-100zm9 24c-40 0-46 34-46 75 0 40 6 74 45 74 42 0 51-32 51-76 0-42-9-74-50-73" id="ba"/><path fill="#fff" d="M33-261c38 41 65 92 65 168S71 34 33 75H2C39 34 66-17 66-93S39-220 2-261h31" id="bb"/><g id="h"><use transform="matrix(0.055555555555555546,0,0,0.055555555555555546,0,0)" xlink:href="#aX"/><use transform="matrix(0.055555555555555546,0,0,0.055555555555555546,6.61111111111111,0)" xlink:href="#aD"/><use transform="matrix(0.055555555555555546,0,0,0.055555555555555546,13.22222222222222,0)" xlink:href="#aJ"/><use transform="matrix(0.055555555555555546,0,0,0.055555555555555546,24.33333333333333,0)" xlink:href="#aY"/><use transform="matrix(0.055555555555555546,0,0,0.055555555555555546,38.722222222222214,0)" xlink:href="#aZ"/><use transform="matrix(0.055555555555555546,0,0,0.055555555555555546,45.33333333333332,0)" xlink:href="#aJ"/><use transform="matrix(0.055555555555555546,0,0,0.055555555555555546,56.44444444444443,0)" xlink:href="#aD"/><use transform="matrix(0.055555555555555546,0,0,0.055555555555555546,63.05555555555553,0)" xlink:href="#aI"/><use transform="matrix(0.055555555555555546,0,0,0.055555555555555546,67.44444444444443,0)" xlink:href="#aG"/><use transform="matrix(0.055555555555555546,0,0,0.055555555555555546,78.55555555555554,0)" xlink:href="#aB"/><use transform="matrix(0.055555555555555546,0,0,0.055555555555555546,89.66666666666666,0)" xlink:href="#aC"/><use transform="matrix(0.055555555555555546,0,0,0.055555555555555546,95.22222222222221,0)" xlink:href="#aG"/><use transform="matrix(0.055555555555555546,0,0,0.055555555555555546,106.33333333333333,0)" xlink:href="#ba"/><use transform="matrix(0.055555555555555546,0,0,0.055555555555555546,117.44444444444444,0)" xlink:href="#bb"/></g><g id="i"><use transform="matrix(0.06172839506172839,0,0,0.06172839506172839,0,0)" xlink:href="#aA"/><use transform="matrix(0.06172839506172839,0,0,0.06172839506172839,6.172839506172839,0)" xlink:href="#aB"/><use transform="matrix(0.06172839506172839,0,0,0.06172839506172839,18.51851851851852,0)" xlink:href="#aP"/><use transform="matrix(0.06172839506172839,0,0,0.06172839506172839,29.62962962962963,0)" xlink:href="#aC"/><use transform="matrix(0.06172839506172839,0,0,0.06172839506172839,35.80246913580247,0)" xlink:href="#aD"/><use transform="matrix(0.06172839506172839,0,0,0.06172839506172839,43.148148148148145,0)" xlink:href="#aE"/><use transform="matrix(0.06172839506172839,0,0,0.06172839506172839,55.49382716049382,0)" xlink:href="#aF"/><use transform="matrix(0.06172839506172839,0,0,0.06172839506172839,73.9506172839506,0)" xlink:href="#aG"/><use transform="matrix(0.06172839506172839,0,0,0.06172839506172839,86.29629629629629,0)" xlink:href="#aB"/><use transform="matrix(0.06172839506172839,0,0,0.06172839506172839,98.64197530864197,0)" xlink:href="#aC"/><use transform="matrix(0.06172839506172839,0,0,0.06172839506172839,104.81481481481481,0)" xlink:href="#aH"/><use transform="matrix(0.06172839506172839,0,0,0.06172839506172839,117.1604938271605,0)" xlink:href="#aC"/><use transform="matrix(0.06172839506172839,0,0,0.06172839506172839,123.33333333333333,0)" xlink:href="#aI"/><use transform="matrix(0.06172839506172839,0,0,0.06172839506172839,128.20987654320987,0)" xlink:href="#aJ"/><use transform="matrix(0.06172839506172839,0,0,0.06172839506172839,140.55555555555554,0)" xlink:href="#aB"/><use transform="matrix(0.06172839506172839,0,0,0.06172839506172839,152.9012345679012,0)" xlink:href="#aK"/><use transform="matrix(0.06172839506172839,0,0,0.06172839506172839,165.24691358024688,0)" xlink:href="#aI"/><use transform="matrix(0.06172839506172839,0,0,0.06172839506172839,170.1234567901234,0)" xlink:href="#aL"/><use transform="matrix(0.06172839506172839,0,0,0.06172839506172839,182.46913580246908,0)" xlink:href="#aD"/><use transform="matrix(0.06172839506172839,0,0,0.06172839506172839,189.81481481481475,0)" xlink:href="#aH"/><use transform="matrix(0.06172839506172839,0,0,0.06172839506172839,202.16049382716042,0)" xlink:href="#aD"/><use transform="matrix(0.06172839506172839,0,0,0.06172839506172839,209.5061728395061,0)" xlink:href="#aM"/></g><path fill="#19967d" d="M33 0v-248h34V0H33" id="bc"/><path fill="#19967d" d="M110-160c48 1 74 30 74 79 0 53-28 85-80 85-65 0-83-55-86-122-5-90 50-162 133-122 14 7 22 21 27 39l-31 6c-5-40-67-38-82-6-9 19-15 44-15 74 11-20 30-34 60-33zm-7 138c34 0 49-23 49-58s-16-56-50-56c-29 0-50 16-49 49 1 36 15 65 50 65" id="bd"/><path fill="#19967d" d="M155-56V0h-30v-56H8v-25l114-167h33v167h35v25h-35zm-30-156c-27 46-58 90-88 131h88v-131" id="be"/><g id="j"><use transform="matrix(0.049382716049382706,0,0,0.049382716049382706,0,0)" xlink:href="#bc"/><use transform="matrix(0.049382716049382706,0,0,0.049382716049382706,4.93827160493827,0)" xlink:href="#bd"/><use transform="matrix(0.049382716049382706,0,0,0.049382716049382706,14.814814814814811,0)" xlink:href="#be"/></g><path fill="#19967d" d="M96-169c-40 0-48 33-48 73s9 75 48 75c24 0 41-14 43-38l32 2c-6 37-31 61-74 61-59 0-76-41-82-99-10-93 101-131 147-64 4 7 5 14 7 22l-32 3c-4-21-16-35-41-35" id="bf"/><path fill="#19967d" d="M100-194c62-1 85 37 85 99 1 63-27 99-86 99S16-35 15-95c0-66 28-99 85-99zM99-20c44 1 53-31 53-75 0-43-8-75-51-75s-53 32-53 75 10 74 51 75" id="bg"/><path fill="#19967d" d="M24 0v-261h32V0H24" id="bh"/><path fill="#19967d" d="M84 4C-5 8 30-112 23-190h32v120c0 31 7 50 39 49 72-2 45-101 50-169h31l1 190h-30c-1-10 1-25-2-33-11 22-28 36-60 37" id="bi"/><path fill="#19967d" d="M210-169c-67 3-38 105-44 169h-31v-121c0-29-5-50-35-48C34-165 62-65 56 0H25l-1-190h30c1 10-1 24 2 32 10-44 99-50 107 0 11-21 27-35 58-36 85-2 47 119 55 194h-31v-121c0-29-5-49-35-48" id="bj"/><path fill="#19967d" d="M117-194c89-4 53 116 60 194h-32v-121c0-31-8-49-39-48C34-167 62-67 57 0H25l-1-190h30c1 10-1 24 2 32 11-22 29-35 61-36" id="bk"/><g id="k"><use transform="matrix(0.049382716049382706,0,0,0.049382716049382706,0,0)" xlink:href="#bf"/><use transform="matrix(0.049382716049382706,0,0,0.049382716049382706,8.888888888888888,0)" xlink:href="#bg"/><use transform="matrix(0.049382716049382706,0,0,0.049382716049382706,18.76543209876543,0)" xlink:href="#bh"/><use transform="matrix(0.049382716049382706,0,0,0.049382716049382706,22.666666666666664,0)" xlink:href="#bi"/><use transform="matrix(0.049382716049382706,0,0,0.049382716049382706,32.5432098765432,0)" xlink:href="#bj"/><use transform="matrix(0.049382716049382706,0,0,0.049382716049382706,47.30864197530863,0)" xlink:href="#bk"/></g><path fill="#19967d" d="M30-248c118-7 216 8 213 122C240-48 200 0 122 0H30v-248zM63-27c89 8 146-16 146-99s-60-101-146-95v194" id="bl"/><path fill="#19967d" d="M115-194c53 0 69 39 70 98 0 66-23 100-70 100C84 3 66-7 56-30L54 0H23l1-261h32v101c10-23 28-34 59-34zm-8 174c40 0 45-34 45-75 0-40-5-75-45-74-42 0-51 32-51 76 0 43 10 73 51 73" id="bm"/><path fill="#19967d" d="M100-194c63 0 86 42 84 106H49c0 40 14 67 53 68 26 1 43-12 49-29l28 8c-11 28-37 45-77 45C44 4 14-33 15-96c1-61 26-98 85-98zm52 81c6-60-76-77-97-28-3 7-6 17-6 28h103" id="bn"/><g id="l"><use transform="matrix(0.049382716049382706,0,0,0.049382716049382706,0,0)" xlink:href="#bl"/><use transform="matrix(0.049382716049382706,0,0,0.049382716049382706,12.790123456790122,0)" xlink:href="#bg"/><use transform="matrix(0.049382716049382706,0,0,0.049382716049382706,22.666666666666664,0)" xlink:href="#bi"/><use transform="matrix(0.049382716049382706,0,0,0.049382716049382706,32.5432098765432,0)" xlink:href="#bm"/><use transform="matrix(0.049382716049382706,0,0,0.049382716049382706,42.419753086419746,0)" xlink:href="#bh"/><use transform="matrix(0.049382716049382706,0,0,0.049382716049382706,46.32098765432098,0)" xlink:href="#bn"/></g><path fill="#19967d" d="M185-189c-5-48-123-54-124 2 14 75 158 14 163 119 3 78-121 87-175 55-17-10-28-26-33-46l33-7c5 56 141 63 141-1 0-78-155-14-162-118-5-82 145-84 179-34 5 7 8 16 11 25" id="bo"/><path fill="#19967d" d="M59-47c-2 24 18 29 38 22v24C64 9 27 4 27-40v-127H5v-23h24l9-43h21v43h35v23H59v120" id="bp"/><path fill="#19967d" d="M114-163C36-179 61-72 57 0H25l-1-190h30c1 12-1 29 2 39 6-27 23-49 58-41v29" id="bq"/><path fill="#19967d" d="M24-231v-30h32v30H24zM24 0v-190h32V0H24" id="br"/><path fill="#19967d" d="M177-190C167-65 218 103 67 71c-23-6-38-20-44-43l32-5c15 47 100 32 89-28v-30C133-14 115 1 83 1 29 1 15-40 15-95c0-56 16-97 71-98 29-1 48 16 59 35 1-10 0-23 2-32h30zM94-22c36 0 50-32 50-73 0-42-14-75-50-75-39 0-46 34-46 75s6 73 46 73" id="bs"/><g id="m"><use transform="matrix(0.049382716049382706,0,0,0.049382716049382706,0,0)" xlink:href="#bo"/><use transform="matrix(0.049382716049382706,0,0,0.049382716049382706,11.85185185185185,0)" xlink:href="#bp"/><use transform="matrix(0.049382716049382706,0,0,0.049382716049382706,16.79012345679012,0)" xlink:href="#bq"/><use transform="matrix(0.049382716049382706,0,0,0.049382716049382706,22.66666666666666,0)" xlink:href="#br"/><use transform="matrix(0.049382716049382706,0,0,0.049382716049382706,26.567901234567895,0)" xlink:href="#bk"/><use transform="matrix(0.049382716049382706,0,0,0.049382716049382706,36.444444444444436,0)" xlink:href="#bs"/></g><path fill="#fff" d="M33 0v-38h34V0H33" id="bt"/><g id="n"><use transform="matrix(0.06172839506172839,0,0,0.06172839506172839,0,0)" xlink:href="#bt"/><use transform="matrix(0.06172839506172839,0,0,0.06172839506172839,6.172839506172839,0)" xlink:href="#bt"/><use transform="matrix(0.06172839506172839,0,0,0.06172839506172839,12.345679012345679,0)" xlink:href="#bt"/></g><path fill="#0c7cba" d="M205 0l-28-72H64L36 0H1l101-248h38L239 0h-34zm-38-99l-47-123c-12 45-31 82-46 123h93" id="bu"/><path fill="#0c7cba" d="M114-163C36-179 61-72 57 0H25l-1-190h30c1 12-1 29 2 39 6-27 23-49 58-41v29" id="bv"/><path fill="#0c7cba" d="M100-194c62-1 85 37 85 99 1 63-27 99-86 99S16-35 15-95c0-66 28-99 85-99zM99-20c44 1 53-31 53-75 0-43-8-75-51-75s-53 32-53 75 10 74 51 75" id="bw"/><path fill="#0c7cba" d="M206 0h-36l-40-164L89 0H53L-1-190h32L70-26l43-164h34l41 164 42-164h31" id="bx"/><g id="o"><use transform="matrix(0.06172839506172839,0,0,0.06172839506172839,0,0)" xlink:href="#bu"/><use transform="matrix(0.06172839506172839,0,0,0.06172839506172839,14.814814814814813,0)" xlink:href="#bv"/><use transform="matrix(0.06172839506172839,0,0,0.06172839506172839,22.160493827160494,0)" xlink:href="#bv"/><use transform="matrix(0.06172839506172839,0,0,0.06172839506172839,29.50617283950617,0)" xlink:href="#bw"/><use transform="matrix(0.06172839506172839,0,0,0.06172839506172839,41.85185185185185,0)" xlink:href="#bx"/></g><path fill="#0c7cba" d="M115-194c53 0 69 39 70 98 0 66-23 100-70 100C84 3 66-7 56-30L54 0H23l1-261h32v101c10-23 28-34 59-34zm-8 174c40 0 45-34 45-75 0-40-5-75-45-74-42 0-51 32-51 76 0 43 10 73 51 73" id="by"/><path fill="#0c7cba" d="M84 4C-5 8 30-112 23-190h32v120c0 31 7 50 39 49 72-2 45-101 50-169h31l1 190h-30c-1-10 1-25-2-33-11 22-28 36-60 37" id="bz"/><path fill="#0c7cba" d="M101-234c-31-9-42 10-38 44h38v23H63V0H32v-167H5v-23h27c-7-52 17-82 69-68v24" id="bA"/><path fill="#0c7cba" d="M100-194c63 0 86 42 84 106H49c0 40 14 67 53 68 26 1 43-12 49-29l28 8c-11 28-37 45-77 45C44 4 14-33 15-96c1-61 26-98 85-98zm52 81c6-60-76-77-97-28-3 7-6 17-6 28h103" id="bB"/><g id="p"><use transform="matrix(0.06172839506172839,0,0,0.06172839506172839,0,0)" xlink:href="#by"/><use transform="matrix(0.06172839506172839,0,0,0.06172839506172839,12.345679012345679,0)" xlink:href="#bz"/><use transform="matrix(0.06172839506172839,0,0,0.06172839506172839,24.691358024691358,0)" xlink:href="#bA"/><use transform="matrix(0.06172839506172839,0,0,0.06172839506172839,30.432098765432098,0)" xlink:href="#bA"/><use transform="matrix(0.06172839506172839,0,0,0.06172839506172839,36.60493827160494,0)" xlink:href="#bB"/><use transform="matrix(0.06172839506172839,0,0,0.06172839506172839,48.95061728395061,0)" xlink:href="#bv"/></g><path fill="#0c7cba" d="M87 75C49 33 22-17 22-94c0-76 28-126 65-167h31c-38 41-64 92-64 168S80 34 118 75H87" id="bC"/><path fill="#0c7cba" d="M179-190L93 31C79 59 56 82 12 73V49c39 6 53-20 64-50L1-190h34L92-34l54-156h33" id="bD"/><path fill="#0c7cba" d="M59-47c-2 24 18 29 38 22v24C64 9 27 4 27-40v-127H5v-23h24l9-43h21v43h35v23H59v120" id="bE"/><path fill="#0c7cba" d="M135-143c-3-34-86-38-87 0 15 53 115 12 119 90S17 21 10-45l28-5c4 36 97 45 98 0-10-56-113-15-118-90-4-57 82-63 122-42 12 7 21 19 24 35" id="bF"/><path fill="#0c7cba" d="M33-261c38 41 65 92 65 168S71 34 33 75H2C39 34 66-17 66-93S39-220 2-261h31" id="bG"/><g id="q"><use transform="matrix(0.06172839506172839,0,0,0.06172839506172839,0,0)" xlink:href="#bC"/><use transform="matrix(0.06172839506172839,0,0,0.06172839506172839,7.345679012345679,0)" xlink:href="#by"/><use transform="matrix(0.06172839506172839,0,0,0.06172839506172839,19.691358024691358,0)" xlink:href="#bD"/><use transform="matrix(0.06172839506172839,0,0,0.06172839506172839,30.80246913580247,0)" xlink:href="#bE"/><use transform="matrix(0.06172839506172839,0,0,0.06172839506172839,36.97530864197531,0)" xlink:href="#bB"/><use transform="matrix(0.06172839506172839,0,0,0.06172839506172839,49.32098765432099,0)" xlink:href="#bF"/><use transform="matrix(0.06172839506172839,0,0,0.06172839506172839,60.4320987654321,0)" xlink:href="#bG"/></g><path fill="#834187" d="M140-251c80 0 125 45 125 126S219 4 139 4C58 4 15-44 15-125s44-126 125-126zm-1 214c52 0 73-35 73-88 0-50-21-86-72-86-52 0-73 35-73 86s22 88 72 88" id="bH"/><path fill="#834187" d="M136-208V0H84v-208H4v-40h212v40h-80" id="bI"/><path fill="#834187" d="M24 0v-248h195v40H76v63h132v40H76v65h150V0H24" id="bJ"/><path fill="#834187" d="M24 0v-248h52v208h133V0H24" id="bK"/><g id="r"><use transform="matrix(0.07407407407407407,0,0,0.07407407407407407,0,0)" xlink:href="#bH"/><use transform="matrix(0.07407407407407407,0,0,0.07407407407407407,20.74074074074074,0)" xlink:href="#bI"/><use transform="matrix(0.07407407407407407,0,0,0.07407407407407407,36.96296296296296,0)" xlink:href="#bJ"/><use transform="matrix(0.07407407407407407,0,0,0.07407407407407407,54.74074074074074,0)" xlink:href="#bK"/></g><path fill="#834187" d="M147 0H94L2-248h55l64 206c17-72 42-137 63-206h54" id="bL"/><path fill="#834187" d="M23 0v-37h61v-169l-59 37v-38l62-41h46v211h57V0H23" id="bM"/><g id="s"><use transform="matrix(0.07407407407407407,0,0,0.07407407407407407,0,0)" xlink:href="#bL"/><use transform="matrix(0.07407407407407407,0,0,0.07407407407407407,17.77777777777778,0)" xlink:href="#bM"/></g><path fill="#834187" d="M220-157c-53 9-28 100-34 157h-49v-107c1-27-5-49-29-50C55-147 81-57 75 0H25l-1-190h47c2 12-1 28 3 38 10-53 101-56 108 0 13-22 24-43 59-42 82 1 51 116 57 194h-49v-107c-1-25-5-48-29-50" id="bN"/><path fill="#834187" d="M185-48c-13 30-37 53-82 52C43 2 14-33 14-96s30-98 90-98c62 0 83 45 84 108H66c0 31 8 55 39 56 18 0 30-7 34-22zm-45-69c5-46-57-63-70-21-2 6-4 13-4 21h74" id="bO"/><path fill="#834187" d="M115-3C79 11 28 4 28-45v-112H4v-33h27l15-45h31v45h36v33H77v99c-1 23 16 31 38 25v30" id="bP"/><path fill="#834187" d="M135-150c-39-12-60 13-60 57V0H25l-1-190h47c2 13-1 29 3 40 6-28 27-53 61-41v41" id="bQ"/><path fill="#834187" d="M25-224v-37h50v37H25zM25 0v-190h50V0H25" id="bR"/><path fill="#834187" d="M190-63c-7 42-38 67-86 67-59 0-84-38-90-98-12-110 154-137 174-36l-49 2c-2-19-15-32-35-32-30 0-35 28-38 64-6 74 65 87 74 30" id="bS"/><path fill="#834187" d="M137-138c1-29-70-34-71-4 15 46 118 7 119 86 1 83-164 76-172 9l43-7c4 19 20 25 44 25 33 8 57-30 24-41C81-84 22-81 20-136c-2-80 154-74 161-7" id="bT"/><g id="t"><use transform="matrix(0.07407407407407407,0,0,0.07407407407407407,0,0)" xlink:href="#bN"/><use transform="matrix(0.07407407407407407,0,0,0.07407407407407407,23.703703703703702,0)" xlink:href="#bO"/><use transform="matrix(0.07407407407407407,0,0,0.07407407407407407,38.51851851851852,0)" xlink:href="#bP"/><use transform="matrix(0.07407407407407407,0,0,0.07407407407407407,47.333333333333336,0)" xlink:href="#bQ"/><use transform="matrix(0.07407407407407407,0,0,0.07407407407407407,57.70370370370371,0)" xlink:href="#bR"/><use transform="matrix(0.07407407407407407,0,0,0.07407407407407407,65.11111111111111,0)" xlink:href="#bS"/><use transform="matrix(0.07407407407407407,0,0,0.07407407407407407,79.92592592592592,0)" xlink:href="#bT"/></g><path fill="#834187" d="M87 75C49 33 22-17 22-94c0-76 28-126 65-167h31c-38 41-64 92-64 168S80 34 118 75H87" id="bU"/><path fill="#834187" d="M96-169c-40 0-48 33-48 73s9 75 48 75c24 0 41-14 43-38l32 2c-6 37-31 61-74 61-59 0-76-41-82-99-10-93 101-131 147-64 4 7 5 14 7 22l-32 3c-4-21-16-35-41-35" id="bV"/><path fill="#834187" d="M84 4C-5 8 30-112 23-190h32v120c0 31 7 50 39 49 72-2 45-101 50-169h31l1 190h-30c-1-10 1-25-2-33-11 22-28 36-60 37" id="bW"/><path fill="#834187" d="M114-163C36-179 61-72 57 0H25l-1-190h30c1 12-1 29 2 39 6-27 23-49 58-41v29" id="bX"/><path fill="#834187" d="M100-194c63 0 86 42 84 106H49c0 40 14 67 53 68 26 1 43-12 49-29l28 8c-11 28-37 45-77 45C44 4 14-33 15-96c1-61 26-98 85-98zm52 81c6-60-76-77-97-28-3 7-6 17-6 28h103" id="bY"/><path fill="#834187" d="M117-194c89-4 53 116 60 194h-32v-121c0-31-8-49-39-48C34-167 62-67 57 0H25l-1-190h30c1 10-1 24 2 32 11-22 29-35 61-36" id="bZ"/><path fill="#834187" d="M59-47c-2 24 18 29 38 22v24C64 9 27 4 27-40v-127H5v-23h24l9-43h21v43h35v23H59v120" id="ca"/><g id="u"><use transform="matrix(0.0493827160493827,0,0,0.0493827160493827,0,0)" xlink:href="#bU"/><use transform="matrix(0.0493827160493827,0,0,0.0493827160493827,5.876543209876541,0)" xlink:href="#bV"/><use transform="matrix(0.0493827160493827,0,0,0.0493827160493827,14.765432098765427,0)" xlink:href="#bW"/><use transform="matrix(0.0493827160493827,0,0,0.0493827160493827,24.641975308641968,0)" xlink:href="#bX"/><use transform="matrix(0.0493827160493827,0,0,0.0493827160493827,30.51851851851851,0)" xlink:href="#bX"/><use transform="matrix(0.0493827160493827,0,0,0.0493827160493827,36.39506172839505,0)" xlink:href="#bY"/><use transform="matrix(0.0493827160493827,0,0,0.0493827160493827,46.27160493827159,0)" xlink:href="#bZ"/><use transform="matrix(0.0493827160493827,0,0,0.0493827160493827,56.14814814814813,0)" xlink:href="#ca"/></g><path fill="#834187" d="M135-143c-3-34-86-38-87 0 15 53 115 12 119 90S17 21 10-45l28-5c4 36 97 45 98 0-10-56-113-15-118-90-4-57 82-63 122-42 12 7 21 19 24 35" id="cb"/><path fill="#834187" d="M141-36C126-15 110 5 73 4 37 3 15-17 15-53c-1-64 63-63 125-63 3-35-9-54-41-54-24 1-41 7-42 31l-33-3c5-37 33-52 76-52 45 0 72 20 72 64v82c-1 20 7 32 28 27v20c-31 9-61-2-59-35zM48-53c0 20 12 33 32 33 41-3 63-29 60-74-43 2-92-5-92 41" id="cc"/><path fill="#834187" d="M85-194c31 0 48 13 60 33l-1-100h32l1 261h-30c-2-10 0-23-3-31C134-8 116 4 85 4 32 4 16-35 15-94c0-66 23-100 70-100zm9 24c-40 0-46 34-46 75 0 40 6 74 45 74 42 0 51-32 51-76 0-42-9-74-50-73" id="cd"/><path fill="#834187" d="M33-261c38 41 65 92 65 168S71 34 33 75H2C39 34 66-17 66-93S39-220 2-261h31" id="ce"/><g id="v"><use transform="matrix(0.0493827160493827,0,0,0.0493827160493827,0,0)" xlink:href="#cb"/><use transform="matrix(0.0493827160493827,0,0,0.0493827160493827,8.888888888888886,0)" xlink:href="#ca"/><use transform="matrix(0.0493827160493827,0,0,0.0493827160493827,13.827160493827153,0)" xlink:href="#cc"/><use transform="matrix(0.0493827160493827,0,0,0.0493827160493827,23.703703703703695,0)" xlink:href="#bZ"/><use transform="matrix(0.0493827160493827,0,0,0.0493827160493827,33.58024691358023,0)" xlink:href="#cd"/><use transform="matrix(0.0493827160493827,0,0,0.0493827160493827,43.45679012345677,0)" xlink:href="#cc"/><use transform="matrix(0.0493827160493827,0,0,0.0493827160493827,53.33333333333331,0)" xlink:href="#bX"/><use transform="matrix(0.0493827160493827,0,0,0.0493827160493827,59.209876543209845,0)" xlink:href="#cd"/><use transform="matrix(0.0493827160493827,0,0,0.0493827160493827,69.08641975308639,0)" xlink:href="#ce"/></g><path fill="#19967d" d="M140-251c80 0 125 45 125 126S219 4 139 4C58 4 15-44 15-125s44-126 125-126zm-1 214c52 0 73-35 73-88 0-50-21-86-72-86-52 0-73 35-73 86s22 88 72 88" id="cf"/><path fill="#19967d" d="M136-208V0H84v-208H4v-40h212v40h-80" id="cg"/><path fill="#19967d" d="M24 0v-248h195v40H76v63h132v40H76v65h150V0H24" id="ch"/><path fill="#19967d" d="M24 0v-248h52v208h133V0H24" id="ci"/><g id="w"><use transform="matrix(0.07407407407407407,0,0,0.07407407407407407,0,0)" xlink:href="#cf"/><use transform="matrix(0.07407407407407407,0,0,0.07407407407407407,20.74074074074074,0)" xlink:href="#cg"/><use transform="matrix(0.07407407407407407,0,0,0.07407407407407407,36.96296296296296,0)" xlink:href="#ch"/><use transform="matrix(0.07407407407407407,0,0,0.07407407407407407,54.74074074074074,0)" xlink:href="#ci"/></g><path fill="#19967d" d="M190-63c-7 42-38 67-86 67-59 0-84-38-90-98-12-110 154-137 174-36l-49 2c-2-19-15-32-35-32-30 0-35 28-38 64-6 74 65 87 74 30" id="cj"/><path fill="#19967d" d="M110-194c64 0 96 36 96 99 0 64-35 99-97 99-61 0-95-36-95-99 0-62 34-99 96-99zm-1 164c35 0 45-28 45-65 0-40-10-65-43-65-34 0-45 26-45 65 0 36 10 65 43 65" id="ck"/><path fill="#19967d" d="M25 0v-261h50V0H25" id="cl"/><path fill="#19967d" d="M85 4C-2 5 27-109 22-190h50c7 57-23 150 33 157 60-5 35-97 40-157h50l1 190h-47c-2-12 1-28-3-38-12 25-28 42-61 42" id="cm"/><path fill="#19967d" d="M220-157c-53 9-28 100-34 157h-49v-107c1-27-5-49-29-50C55-147 81-57 75 0H25l-1-190h47c2 12-1 28 3 38 10-53 101-56 108 0 13-22 24-43 59-42 82 1 51 116 57 194h-49v-107c-1-25-5-48-29-50" id="cn"/><path fill="#19967d" d="M135-194c87-1 58 113 63 194h-50c-7-57 23-157-34-157-59 0-34 97-39 157H25l-1-190h47c2 12-1 28 3 38 12-26 28-41 61-42" id="co"/><path fill="#19967d" d="M133-34C117-15 103 5 69 4 32 3 11-16 11-54c-1-60 55-63 116-61 1-26-3-47-28-47-18 1-26 9-28 27l-52-2c7-38 36-58 82-57s74 22 75 68l1 82c-1 14 12 18 25 15v27c-30 8-71 5-69-32zm-48 3c29 0 43-24 42-57-32 0-66-3-65 30 0 17 8 27 23 27" id="cp"/><path fill="#19967d" d="M135-150c-39-12-60 13-60 57V0H25l-1-190h47c2 13-1 29 3 40 6-28 27-53 61-41v41" id="cq"/><g id="x"><use transform="matrix(0.07407407407407407,0,0,0.07407407407407407,0,0)" xlink:href="#cj"/><use transform="matrix(0.07407407407407407,0,0,0.07407407407407407,14.814814814814813,0)" xlink:href="#ck"/><use transform="matrix(0.07407407407407407,0,0,0.07407407407407407,31.037037037037035,0)" xlink:href="#cl"/><use transform="matrix(0.07407407407407407,0,0,0.07407407407407407,38.44444444444444,0)" xlink:href="#cm"/><use transform="matrix(0.07407407407407407,0,0,0.07407407407407407,54.666666666666664,0)" xlink:href="#cn"/><use transform="matrix(0.07407407407407407,0,0,0.07407407407407407,78.37037037037037,0)" xlink:href="#co"/><use transform="matrix(0.07407407407407407,0,0,0.07407407407407407,94.59259259259258,0)" xlink:href="#cp"/><use transform="matrix(0.07407407407407407,0,0,0.07407407407407407,109.40740740740739,0)" xlink:href="#cq"/></g><path fill="#19967d" d="M87 75C49 33 22-17 22-94c0-76 28-126 65-167h31c-38 41-64 92-64 168S80 34 118 75H87" id="cr"/><path fill="#19967d" d="M179-190L93 31C79 59 56 82 12 73V49c39 6 53-20 64-50L1-190h34L92-34l54-156h33" id="cs"/><g id="y"><use transform="matrix(0.0493827160493827,0,0,0.0493827160493827,0,0)" xlink:href="#cr"/><use transform="matrix(0.0493827160493827,0,0,0.0493827160493827,5.876543209876541,0)" xlink:href="#bg"/><use transform="matrix(0.0493827160493827,0,0,0.0493827160493827,15.753086419753082,0)" xlink:href="#bk"/><use transform="matrix(0.0493827160493827,0,0,0.0493827160493827,25.629629629629623,0)" xlink:href="#bh"/><use transform="matrix(0.0493827160493827,0,0,0.0493827160493827,29.530864197530853,0)" xlink:href="#cs"/></g><path fill="#19967d" d="M115-194c55 1 70 41 70 98S169 2 115 4C84 4 66-9 55-30l1 105H24l-1-265h31l2 30c10-21 28-34 59-34zm-8 174c40 0 45-34 45-75s-6-73-45-74c-42 0-51 32-51 76 0 43 10 73 51 73" id="ct"/><path fill="#19967d" d="M101-234c-31-9-42 10-38 44h38v23H63V0H32v-167H5v-23h27c-7-52 17-82 69-68v24" id="cu"/><path fill="#19967d" d="M33-261c38 41 65 92 65 168S71 34 33 75H2C39 34 66-17 66-93S39-220 2-261h31" id="cv"/><g id="z"><use transform="matrix(0.0493827160493827,0,0,0.0493827160493827,0,0)" xlink:href="#ct"/><use transform="matrix(0.0493827160493827,0,0,0.0493827160493827,9.876543209876539,0)" xlink:href="#bq"/><use transform="matrix(0.0493827160493827,0,0,0.0493827160493827,15.753086419753082,0)" xlink:href="#bg"/><use transform="matrix(0.0493827160493827,0,0,0.0493827160493827,25.629629629629623,0)" xlink:href="#bp"/><use transform="matrix(0.0493827160493827,0,0,0.0493827160493827,30.567901234567884,0)" xlink:href="#bg"/><use transform="matrix(0.0493827160493827,0,0,0.0493827160493827,40.44444444444443,0)" xlink:href="#bm"/><use transform="matrix(0.0493827160493827,0,0,0.0493827160493827,50.320987654320966,0)" xlink:href="#bi"/><use transform="matrix(0.0493827160493827,0,0,0.0493827160493827,60.197530864197496,0)" xlink:href="#cu"/><use transform="matrix(0.0493827160493827,0,0,0.0493827160493827,65.13580246913577,0)" xlink:href="#cv"/></g><path fill="#0c7cba" d="M140-251c80 0 125 45 125 126S219 4 139 4C58 4 15-44 15-125s44-126 125-126zm-1 214c52 0 73-35 73-88 0-50-21-86-72-86-52 0-73 35-73 86s22 88 72 88" id="cw"/><path fill="#0c7cba" d="M136-208V0H84v-208H4v-40h212v40h-80" id="cx"/><path fill="#0c7cba" d="M24 0v-248h195v40H76v63h132v40H76v65h150V0H24" id="cy"/><path fill="#0c7cba" d="M24 0v-248h52v208h133V0H24" id="cz"/><g id="A"><use transform="matrix(0.07407407407407407,0,0,0.07407407407407407,0,0)" xlink:href="#cw"/><use transform="matrix(0.07407407407407407,0,0,0.07407407407407407,20.74074074074074,0)" xlink:href="#cx"/><use transform="matrix(0.07407407407407407,0,0,0.07407407407407407,36.96296296296296,0)" xlink:href="#cy"/><use transform="matrix(0.07407407407407407,0,0,0.07407407407407407,54.74074074074074,0)" xlink:href="#cz"/></g><path fill="#0c7cba" d="M133-34C117-15 103 5 69 4 32 3 11-16 11-54c-1-60 55-63 116-61 1-26-3-47-28-47-18 1-26 9-28 27l-52-2c7-38 36-58 82-57s74 22 75 68l1 82c-1 14 12 18 25 15v27c-30 8-71 5-69-32zm-48 3c29 0 43-24 42-57-32 0-66-3-65 30 0 17 8 27 23 27" id="cA"/><path fill="#0c7cba" d="M135-150c-39-12-60 13-60 57V0H25l-1-190h47c2 13-1 29 3 40 6-28 27-53 61-41v41" id="cB"/><path fill="#0c7cba" d="M110-194c64 0 96 36 96 99 0 64-35 99-97 99-61 0-95-36-95-99 0-62 34-99 96-99zm-1 164c35 0 45-28 45-65 0-40-10-65-43-65-34 0-45 26-45 65 0 36 10 65 43 65" id="cC"/><path fill="#0c7cba" d="M231 0h-52l-39-155L100 0H48L-1-190h46L77-45c9-52 24-97 36-145h53l37 145 32-145h46" id="cD"/><g id="B"><use transform="matrix(0.07407407407407407,0,0,0.07407407407407407,0,0)" xlink:href="#cA"/><use transform="matrix(0.07407407407407407,0,0,0.07407407407407407,14.814814814814813,0)" xlink:href="#cB"/><use transform="matrix(0.07407407407407407,0,0,0.07407407407407407,25.185185185185183,0)" xlink:href="#cB"/><use transform="matrix(0.07407407407407407,0,0,0.07407407407407407,35.55555555555556,0)" xlink:href="#cC"/><use transform="matrix(0.07407407407407407,0,0,0.07407407407407407,51.77777777777777,0)" xlink:href="#cD"/></g><path fill="#0c7cba" d="M141-36C126-15 110 5 73 4 37 3 15-17 15-53c-1-64 63-63 125-63 3-35-9-54-41-54-24 1-41 7-42 31l-33-3c5-37 33-52 76-52 45 0 72 20 72 64v82c-1 20 7 32 28 27v20c-31 9-61-2-59-35zM48-53c0 20 12 33 32 33 41-3 63-29 60-74-43 2-92-5-92 41" id="cE"/><g id="C"><use transform="matrix(0.0493827160493827,0,0,0.0493827160493827,0,0)" xlink:href="#bC"/><use transform="matrix(0.0493827160493827,0,0,0.0493827160493827,5.876543209876541,0)" xlink:href="#cE"/><use transform="matrix(0.0493827160493827,0,0,0.0493827160493827,15.753086419753082,0)" xlink:href="#bv"/><use transform="matrix(0.0493827160493827,0,0,0.0493827160493827,21.62962962962962,0)" xlink:href="#bv"/><use transform="matrix(0.0493827160493827,0,0,0.0493827160493827,27.506172839506156,0)" xlink:href="#bw"/><use transform="matrix(0.0493827160493827,0,0,0.0493827160493827,37.3827160493827,0)" xlink:href="#bx"/></g><g id="D"><use transform="matrix(0.0493827160493827,0,0,0.0493827160493827,0,0)" xlink:href="#by"/><use transform="matrix(0.0493827160493827,0,0,0.0493827160493827,9.876543209876539,0)" xlink:href="#bz"/><use transform="matrix(0.0493827160493827,0,0,0.0493827160493827,19.753086419753078,0)" xlink:href="#bA"/><use transform="matrix(0.0493827160493827,0,0,0.0493827160493827,24.345679012345666,0)" xlink:href="#bA"/><use transform="matrix(0.0493827160493827,0,0,0.0493827160493827,29.283950617283935,0)" xlink:href="#bB"/><use transform="matrix(0.0493827160493827,0,0,0.0493827160493827,39.16049382716047,0)" xlink:href="#bv"/></g><path fill="#0c7cba" d="M210-169c-67 3-38 105-44 169h-31v-121c0-29-5-50-35-48C34-165 62-65 56 0H25l-1-190h30c1 10-1 24 2 32 10-44 99-50 107 0 11-21 27-35 58-36 85-2 47 119 55 194h-31v-121c0-29-5-49-35-48" id="cF"/><path fill="#0c7cba" d="M85-194c31 0 48 13 60 33l-1-100h32l1 261h-30c-2-10 0-23-3-31C134-8 116 4 85 4 32 4 16-35 15-94c0-66 23-100 70-100zm9 24c-40 0-46 34-46 75 0 40 6 74 45 74 42 0 51-32 51-76 0-42-9-74-50-73" id="cG"/><g id="E"><use transform="matrix(0.0493827160493827,0,0,0.0493827160493827,0,0)" xlink:href="#bB"/><use transform="matrix(0.0493827160493827,0,0,0.0493827160493827,9.876543209876539,0)" xlink:href="#cF"/><use transform="matrix(0.0493827160493827,0,0,0.0493827160493827,24.641975308641968,0)" xlink:href="#by"/><use transform="matrix(0.0493827160493827,0,0,0.0493827160493827,34.518518518518505,0)" xlink:href="#bB"/><use transform="matrix(0.0493827160493827,0,0,0.0493827160493827,44.39506172839504,0)" xlink:href="#cG"/><use transform="matrix(0.0493827160493827,0,0,0.0493827160493827,54.27160493827157,0)" xlink:href="#cG"/><use transform="matrix(0.0493827160493827,0,0,0.0493827160493827,64.14814814814812,0)" xlink:href="#bB"/><use transform="matrix(0.0493827160493827,0,0,0.0493827160493827,74.02469135802467,0)" xlink:href="#cG"/></g><path fill="#0c7cba" d="M24-231v-30h32v30H24zM24 0v-190h32V0H24" id="cH"/><path fill="#0c7cba" d="M117-194c89-4 53 116 60 194h-32v-121c0-31-8-49-39-48C34-167 62-67 57 0H25l-1-190h30c1 10-1 24 2 32 11-22 29-35 61-36" id="cI"/><g id="F"><use transform="matrix(0.0493827160493827,0,0,0.0493827160493827,0,0)" xlink:href="#cH"/><use transform="matrix(0.0493827160493827,0,0,0.0493827160493827,3.9012345679012332,0)" xlink:href="#cI"/><use transform="matrix(0.0493827160493827,0,0,0.0493827160493827,13.77777777777777,0)" xlink:href="#bE"/><use transform="matrix(0.0493827160493827,0,0,0.0493827160493827,18.71604938271604,0)" xlink:href="#bw"/></g><path fill="#0c7cba" d="M115-194c55 1 70 41 70 98S169 2 115 4C84 4 66-9 55-30l1 105H24l-1-265h31l2 30c10-21 28-34 59-34zm-8 174c40 0 45-34 45-75s-6-73-45-74c-42 0-51 32-51 76 0 43 10 73 51 73" id="cJ"/><g id="G"><use transform="matrix(0.0493827160493827,0,0,0.0493827160493827,0,0)" xlink:href="#cJ"/><use transform="matrix(0.0493827160493827,0,0,0.0493827160493827,9.876543209876539,0)" xlink:href="#bv"/><use transform="matrix(0.0493827160493827,0,0,0.0493827160493827,15.753086419753082,0)" xlink:href="#bw"/><use transform="matrix(0.0493827160493827,0,0,0.0493827160493827,25.629629629629623,0)" xlink:href="#bE"/><use transform="matrix(0.0493827160493827,0,0,0.0493827160493827,30.567901234567884,0)" xlink:href="#bw"/><use transform="matrix(0.0493827160493827,0,0,0.0493827160493827,40.44444444444443,0)" xlink:href="#by"/><use transform="matrix(0.0493827160493827,0,0,0.0493827160493827,50.320987654320966,0)" xlink:href="#bz"/><use transform="matrix(0.0493827160493827,0,0,0.0493827160493827,60.197530864197496,0)" xlink:href="#bA"/><use transform="matrix(0.0493827160493827,0,0,0.0493827160493827,65.13580246913577,0)" xlink:href="#bG"/></g><path fill="#fff" d="M141 0L90-78 38 0H4l68-98-65-92h35l48 74 47-74h35l-64 92 68 98h-35" id="cK"/><path fill="#fff" d="M27 0v-27h64v-190l-56 39v-29l58-41h29v221h61V0H27" id="cL"/><g id="H"><use transform="matrix(0.06172839506172839,0,0,0.06172839506172839,0,0)" xlink:href="#cK"/><use transform="matrix(0.06172839506172839,0,0,0.06172839506172839,11.11111111111111,0)" xlink:href="#cL"/></g><path fill="#fff" d="M134-131c28 9 52 24 51 62-1 50-34 73-85 73S17-19 16-69c0-36 21-54 49-61-75-25-45-126 34-121 46 3 78 18 79 63 0 33-17 51-44 57zm-34-11c31 1 46-15 46-44 0-28-17-43-47-42-29 0-46 13-45 42 1 28 16 44 46 44zm1 122c35 0 51-18 51-52 0-30-18-46-53-46-33 0-51 17-51 47 0 34 19 51 53 51" id="cM"/><g id="I"><use transform="matrix(0.06172839506172839,0,0,0.06172839506172839,0,0)" xlink:href="#cK"/><use transform="matrix(0.06172839506172839,0,0,0.06172839506172839,11.11111111111111,0)" xlink:href="#cL"/><use transform="matrix(0.06172839506172839,0,0,0.06172839506172839,23.45679012345679,0)" xlink:href="#cM"/></g><path fill="#fff" d="M155-56V0h-30v-56H8v-25l114-167h33v167h35v25h-35zm-30-156c-27 46-58 90-88 131h88v-131" id="cN"/><path fill="#fff" d="M110-160c48 1 74 30 74 79 0 53-28 85-80 85-65 0-83-55-86-122-5-90 50-162 133-122 14 7 22 21 27 39l-31 6c-5-40-67-38-82-6-9 19-15 44-15 74 11-20 30-34 60-33zm-7 138c34 0 49-23 49-58s-16-56-50-56c-29 0-50 16-49 49 1 36 15 65 50 65" id="cO"/><g id="J"><use transform="matrix(0.06172839506172839,0,0,0.06172839506172839,0,0)" xlink:href="#cK"/><use transform="matrix(0.06172839506172839,0,0,0.06172839506172839,11.11111111111111,0)" xlink:href="#cN"/><use transform="matrix(0.06172839506172839,0,0,0.06172839506172839,23.45679012345679,0)" xlink:href="#cO"/></g><path fill="#fff" d="M140-251c80 0 125 45 125 126S219 4 139 4C58 4 15-44 15-125s44-126 125-126zm-1 214c52 0 73-35 73-88 0-50-21-86-72-86-52 0-73 35-73 86s22 88 72 88" id="cP"/><path fill="#fff" d="M136-208V0H84v-208H4v-40h212v40h-80" id="cQ"/><path fill="#fff" d="M24 0v-248h52v208h133V0H24" id="cR"/><g id="K"><use transform="matrix(0.06172839506172839,0,0,0.06172839506172839,0,0)" xlink:href="#cP"/><use transform="matrix(0.06172839506172839,0,0,0.06172839506172839,17.28395061728395,0)" xlink:href="#cQ"/><use transform="matrix(0.06172839506172839,0,0,0.06172839506172839,30.80246913580247,0)" xlink:href="#aw"/><use transform="matrix(0.06172839506172839,0,0,0.06172839506172839,45.61728395061728,0)" xlink:href="#cR"/></g><g id="L"><use transform="matrix(0.06172839506172839,0,0,0.06172839506172839,0,0)" xlink:href="#aT"/><use transform="matrix(0.06172839506172839,0,0,0.06172839506172839,18.456790123456788,0)" xlink:href="#aq"/><use transform="matrix(0.06172839506172839,0,0,0.06172839506172839,30.80246913580247,0)" xlink:href="#az"/><use transform="matrix(0.06172839506172839,0,0,0.06172839506172839,38.148148148148145,0)" xlink:href="#au"/><use transform="matrix(0.06172839506172839,0,0,0.06172839506172839,46.79012345679012,0)" xlink:href="#aU"/><use transform="matrix(0.06172839506172839,0,0,0.06172839506172839,52.96296296296296,0)" xlink:href="#av"/><use transform="matrix(0.06172839506172839,0,0,0.06172839506172839,65.30864197530865,0)" xlink:href="#ar"/></g><path fill="#fff" d="M169-182c-1-43-94-46-97-3 18 66 151 10 154 114 3 95-165 93-204 36-6-8-10-19-12-30l50-8c3 46 112 56 116 5-17-69-150-10-154-114-4-87 153-88 188-35 5 8 8 18 10 28" id="cS"/><path fill="#fff" d="M24-248c120-7 223 5 221 122C244-46 201 0 124 0H24v-248zM76-40c74 7 117-18 117-86 0-67-45-88-117-82v168" id="cT"/><path fill="#fff" d="M195 0l-88-114-31 24V0H24v-248h52v113l112-113h60L142-143 257 0h-62" id="cU"/><g id="M"><use transform="matrix(0.06172839506172839,0,0,0.06172839506172839,0,0)" xlink:href="#cS"/><use transform="matrix(0.06172839506172839,0,0,0.06172839506172839,14.814814814814813,0)" xlink:href="#cT"/><use transform="matrix(0.06172839506172839,0,0,0.06172839506172839,30.80246913580247,0)" xlink:href="#cU"/></g><g id="N"><use transform="matrix(0.049382716049382706,0,0,0.049382716049382706,0,0)" xlink:href="#aX"/><use transform="matrix(0.049382716049382706,0,0,0.049382716049382706,5.876543209876542,0)" xlink:href="#aY"/><use transform="matrix(0.049382716049382706,0,0,0.049382716049382706,18.666666666666664,0)" xlink:href="#aI"/><use transform="matrix(0.049382716049382706,0,0,0.049382716049382706,22.5679012345679,0)" xlink:href="#aC"/><use transform="matrix(0.049382716049382706,0,0,0.049382716049382706,27.506172839506174,0)" xlink:href="#aS"/></g><path fill="#fff" d="M24 0v-261h32V0H24" id="cV"/><g id="O"><use transform="matrix(0.049382716049382706,0,0,0.049382716049382706,0,0)" xlink:href="#aF"/><use transform="matrix(0.049382716049382706,0,0,0.049382716049382706,14.765432098765428,0)" xlink:href="#aE"/><use transform="matrix(0.049382716049382706,0,0,0.049382716049382706,24.641975308641968,0)" xlink:href="#cV"/><use transform="matrix(0.049382716049382706,0,0,0.049382716049382706,28.543209876543205,0)" xlink:href="#aC"/><use transform="matrix(0.049382716049382706,0,0,0.049382716049382706,33.481481481481474,0)" xlink:href="#aI"/><use transform="matrix(0.049382716049382706,0,0,0.049382716049382706,37.38271604938271,0)" xlink:href="#aO"/><use transform="matrix(0.049382716049382706,0,0,0.049382716049382706,46.271604938271594,0)" xlink:href="#aH"/><use transform="matrix(0.049382716049382706,0,0,0.049382716049382706,56.14814814814814,0)" xlink:href="#aD"/><use transform="matrix(0.049382716049382706,0,0,0.049382716049382706,62.02469135802468,0)" xlink:href="#aI"/><use transform="matrix(0.049382716049382706,0,0,0.049382716049382706,65.92592592592591,0)" xlink:href="#aH"/><use transform="matrix(0.049382716049382706,0,0,0.049382716049382706,75.80246913580245,0)" xlink:href="#aC"/><use transform="matrix(0.049382716049382706,0,0,0.049382716049382706,80.74074074074072,0)" xlink:href="#aG"/></g><g id="P"><use transform="matrix(0.049382716049382706,0,0,0.049382716049382706,0,0)" xlink:href="#aC"/><use transform="matrix(0.049382716049382706,0,0,0.049382716049382706,4.93827160493827,0)" xlink:href="#aI"/><use transform="matrix(0.049382716049382706,0,0,0.049382716049382706,8.839506172839505,0)" xlink:href="#aF"/><use transform="matrix(0.049382716049382706,0,0,0.049382716049382706,23.604938271604933,0)" xlink:href="#aG"/><use transform="matrix(0.049382716049382706,0,0,0.049382716049382706,33.481481481481474,0)" xlink:href="#aZ"/><use transform="matrix(0.049382716049382706,0,0,0.049382716049382706,39.35802469135802,0)" xlink:href="#aP"/><use transform="matrix(0.049382716049382706,0,0,0.049382716049382706,48.246913580246904,0)" xlink:href="#aG"/><use transform="matrix(0.049382716049382706,0,0,0.049382716049382706,58.12345679012345,0)" xlink:href="#aD"/><use transform="matrix(0.049382716049382706,0,0,0.049382716049382706,63.999999999999986,0)" xlink:href="#aI"/><use transform="matrix(0.049382716049382706,0,0,0.049382716049382706,67.90123456790121,0)" xlink:href="#aG"/><use transform="matrix(0.049382716049382706,0,0,0.049382716049382706,77.77777777777776,0)" xlink:href="#aP"/></g><path fill="#fff" d="M115-194c55 1 70 41 70 98S169 2 115 4C84 4 66-9 55-30l1 105H24l-1-265h31l2 30c10-21 28-34 59-34zm-8 174c40 0 45-34 45-75s-6-73-45-74c-42 0-51 32-51 76 0 43 10 73 51 73" id="cW"/><g id="Q"><use transform="matrix(0.049382716049382706,0,0,0.049382716049382706,0,0)" xlink:href="#aP"/><use transform="matrix(0.049382716049382706,0,0,0.049382716049382706,8.888888888888888,0)" xlink:href="#aE"/><use transform="matrix(0.049382716049382706,0,0,0.049382716049382706,18.76543209876543,0)" xlink:href="#cW"/><use transform="matrix(0.049382716049382706,0,0,0.049382716049382706,28.64197530864197,0)" xlink:href="#cW"/><use transform="matrix(0.049382716049382706,0,0,0.049382716049382706,38.51851851851851,0)" xlink:href="#aJ"/><use transform="matrix(0.049382716049382706,0,0,0.049382716049382706,48.39506172839505,0)" xlink:href="#aD"/><use transform="matrix(0.049382716049382706,0,0,0.049382716049382706,54.271604938271594,0)" xlink:href="#aC"/><use transform="matrix(0.049382716049382706,0,0,0.049382716049382706,59.209876543209866,0)" xlink:href="#bb"/></g><path fill="#999" d="M135-143c-3-34-86-38-87 0 15 53 115 12 119 90S17 21 10-45l28-5c4 36 97 45 98 0-10-56-113-15-118-90-4-57 82-63 122-42 12 7 21 19 24 35" id="cX"/><path fill="#999" d="M115-194c55 1 70 41 70 98S169 2 115 4C84 4 66-9 55-30l1 105H24l-1-265h31l2 30c10-21 28-34 59-34zm-8 174c40 0 45-34 45-75s-6-73-45-74c-42 0-51 32-51 76 0 43 10 73 51 73" id="cY"/><path fill="#999" d="M100-194c63 0 86 42 84 106H49c0 40 14 67 53 68 26 1 43-12 49-29l28 8c-11 28-37 45-77 45C44 4 14-33 15-96c1-61 26-98 85-98zm52 81c6-60-76-77-97-28-3 7-6 17-6 28h103" id="cZ"/><path fill="#999" d="M85-194c31 0 48 13 60 33l-1-100h32l1 261h-30c-2-10 0-23-3-31C134-8 116 4 85 4 32 4 16-35 15-94c0-66 23-100 70-100zm9 24c-40 0-46 34-46 75 0 40 6 74 45 74 42 0 51-32 51-76 0-42-9-74-50-73" id="da"/><path fill="#999" d="M16-82v-28h88v28H16" id="db"/><path fill="#999" d="M84 4C-5 8 30-112 23-190h32v120c0 31 7 50 39 49 72-2 45-101 50-169h31l1 190h-30c-1-10 1-25-2-33-11 22-28 36-60 37" id="dc"/><g id="R"><use transform="matrix(0.055555555555555546,0,0,0.055555555555555546,0,0)" xlink:href="#cX"/><use transform="matrix(0.055555555555555546,0,0,0.055555555555555546,9.999999999999998,0)" xlink:href="#cY"/><use transform="matrix(0.055555555555555546,0,0,0.055555555555555546,21.111111111111107,0)" xlink:href="#cZ"/><use transform="matrix(0.055555555555555546,0,0,0.055555555555555546,32.222222222222214,0)" xlink:href="#cZ"/><use transform="matrix(0.055555555555555546,0,0,0.055555555555555546,43.33333333333332,0)" xlink:href="#da"/><use transform="matrix(0.055555555555555546,0,0,0.055555555555555546,54.44444444444443,0)" xlink:href="#db"/><use transform="matrix(0.055555555555555546,0,0,0.055555555555555546,61.05555555555553,0)" xlink:href="#dc"/><use transform="matrix(0.055555555555555546,0,0,0.055555555555555546,72.16666666666664,0)" xlink:href="#cY"/></g><path fill="#999" d="M100-194c62-1 85 37 85 99 1 63-27 99-86 99S16-35 15-95c0-66 28-99 85-99zM99-20c44 1 53-31 53-75 0-43-8-75-51-75s-53 32-53 75 10 74 51 75" id="dd"/><path fill="#999" d="M117-194c89-4 53 116 60 194h-32v-121c0-31-8-49-39-48C34-167 62-67 57 0H25l-1-190h30c1 10-1 24 2 32 11-22 29-35 61-36" id="de"/><g id="S"><use transform="matrix(0.055555555555555546,0,0,0.055555555555555546,0,0)" xlink:href="#dd"/><use transform="matrix(0.055555555555555546,0,0,0.055555555555555546,11.111111111111109,0)" xlink:href="#de"/></g><path fill="#999" d="M59-47c-2 24 18 29 38 22v24C64 9 27 4 27-40v-127H5v-23h24l9-43h21v43h35v23H59v120" id="df"/><g id="T"><use transform="matrix(0.055555555555555546,0,0,0.055555555555555546,0,0)" xlink:href="#df"/><use transform="matrix(0.055555555555555546,0,0,0.055555555555555546,5.5555555555555545,0)" xlink:href="#cZ"/><use transform="matrix(0.055555555555555546,0,0,0.055555555555555546,16.666666666666664,0)" xlink:href="#cX"/><use transform="matrix(0.055555555555555546,0,0,0.055555555555555546,26.666666666666664,0)" xlink:href="#df"/><use transform="matrix(0.055555555555555546,0,0,0.055555555555555546,32.22222222222222,0)" xlink:href="#cZ"/><use transform="matrix(0.055555555555555546,0,0,0.055555555555555546,43.33333333333333,0)" xlink:href="#da"/></g><path fill="#999" d="M96-169c-40 0-48 33-48 73s9 75 48 75c24 0 41-14 43-38l32 2c-6 37-31 61-74 61-59 0-76-41-82-99-10-93 101-131 147-64 4 7 5 14 7 22l-32 3c-4-21-16-35-41-35" id="dg"/><path fill="#999" d="M141-36C126-15 110 5 73 4 37 3 15-17 15-53c-1-64 63-63 125-63 3-35-9-54-41-54-24 1-41 7-42 31l-33-3c5-37 33-52 76-52 45 0 72 20 72 64v82c-1 20 7 32 28 27v20c-31 9-61-2-59-35zM48-53c0 20 12 33 32 33 41-3 63-29 60-74-43 2-92-5-92 41" id="dh"/><path fill="#999" d="M114-163C36-179 61-72 57 0H25l-1-190h30c1 12-1 29 2 39 6-27 23-49 58-41v29" id="di"/><path fill="#999" d="M24-231v-30h32v30H24zM24 0v-190h32V0H24" id="dj"/><g id="U"><use transform="matrix(0.055555555555555546,0,0,0.055555555555555546,0,0)" xlink:href="#cX"/><use transform="matrix(0.055555555555555546,0,0,0.055555555555555546,9.999999999999998,0)" xlink:href="#dg"/><use transform="matrix(0.055555555555555546,0,0,0.055555555555555546,19.999999999999996,0)" xlink:href="#cZ"/><use transform="matrix(0.055555555555555546,0,0,0.055555555555555546,31.111111111111107,0)" xlink:href="#de"/><use transform="matrix(0.055555555555555546,0,0,0.055555555555555546,42.222222222222214,0)" xlink:href="#dh"/><use transform="matrix(0.055555555555555546,0,0,0.055555555555555546,53.33333333333332,0)" xlink:href="#di"/><use transform="matrix(0.055555555555555546,0,0,0.055555555555555546,59.944444444444436,0)" xlink:href="#dj"/><use transform="matrix(0.055555555555555546,0,0,0.055555555555555546,64.33333333333331,0)" xlink:href="#dd"/></g><path fill="#834187" d="M240 0l2-218c-23 76-54 145-80 218h-23L58-218 59 0H30v-248h44l77 211c21-75 51-140 76-211h43V0h-30" id="dk"/><path fill="#834187" d="M24 0v-261h32V0H24" id="dl"/><path fill="#834187" d="M24-231v-30h32v30H24zM24 0v-190h32V0H24" id="dm"/><path fill="#834187" d="M108 0H70L1-190h34L89-25l56-165h34" id="dn"/><g id="V"><use transform="matrix(0.055555555555555546,0,0,0.055555555555555546,0,0)" xlink:href="#dk"/><use transform="matrix(0.055555555555555546,0,0,0.055555555555555546,16.611111111111107,0)" xlink:href="#bW"/><use transform="matrix(0.055555555555555546,0,0,0.055555555555555546,27.722222222222214,0)" xlink:href="#dl"/><use transform="matrix(0.055555555555555546,0,0,0.055555555555555546,32.1111111111111,0)" xlink:href="#ca"/><use transform="matrix(0.055555555555555546,0,0,0.055555555555555546,37.66666666666666,0)" xlink:href="#dm"/><use transform="matrix(0.055555555555555546,0,0,0.055555555555555546,42.05555555555554,0)" xlink:href="#dn"/><use transform="matrix(0.055555555555555546,0,0,0.055555555555555546,52.05555555555554,0)" xlink:href="#cc"/><use transform="matrix(0.055555555555555546,0,0,0.055555555555555546,63.16666666666666,0)" xlink:href="#bX"/><use transform="matrix(0.055555555555555546,0,0,0.055555555555555546,69.77777777777776,0)" xlink:href="#dm"/><use transform="matrix(0.055555555555555546,0,0,0.055555555555555546,74.16666666666664,0)" xlink:href="#cc"/><use transform="matrix(0.055555555555555546,0,0,0.055555555555555546,85.27777777777776,0)" xlink:href="#ca"/><use transform="matrix(0.055555555555555546,0,0,0.055555555555555546,90.83333333333331,0)" xlink:href="#bY"/></g><path fill="#834187" d="M127-220V0H93v-220H8v-28h204v28h-85" id="do"/><path fill="#834187" d="M185-189c-5-48-123-54-124 2 14 75 158 14 163 119 3 78-121 87-175 55-17-10-28-26-33-46l33-7c5 56 141 63 141-1 0-78-155-14-162-118-5-82 145-84 179-34 5 7 8 16 11 25" id="dp"/><g id="W"><use transform="matrix(0.055555555555555546,0,0,0.055555555555555546,0,0)" xlink:href="#do"/><use transform="matrix(0.055555555555555546,0,0,0.055555555555555546,12.166666666666664,0)" xlink:href="#dp"/></g><path fill="#834187" d="M100-194c62-1 85 37 85 99 1 63-27 99-86 99S16-35 15-95c0-66 28-99 85-99zM99-20c44 1 53-31 53-75 0-43-8-75-51-75s-53 32-53 75 10 74 51 75" id="dq"/><g id="X"><use transform="matrix(0.055555555555555546,0,0,0.055555555555555546,0,0)" xlink:href="#bV"/><use transform="matrix(0.055555555555555546,0,0,0.055555555555555546,9.999999999999998,0)" xlink:href="#dq"/><use transform="matrix(0.055555555555555546,0,0,0.055555555555555546,21.111111111111107,0)" xlink:href="#bZ"/><use transform="matrix(0.055555555555555546,0,0,0.055555555555555546,32.222222222222214,0)" xlink:href="#dn"/><use transform="matrix(0.055555555555555546,0,0,0.055555555555555546,42.222222222222214,0)" xlink:href="#bY"/><use transform="matrix(0.055555555555555546,0,0,0.055555555555555546,53.33333333333332,0)" xlink:href="#bX"/><use transform="matrix(0.055555555555555546,0,0,0.055555555555555546,59.944444444444436,0)" xlink:href="#ca"/><use transform="matrix(0.055555555555555546,0,0,0.055555555555555546,65.49999999999999,0)" xlink:href="#bY"/><use transform="matrix(0.055555555555555546,0,0,0.055555555555555546,76.6111111111111,0)" xlink:href="#cd"/></g><g id="Y"><use transform="matrix(0.055555555555555546,0,0,0.055555555555555546,0,0)" xlink:href="#dm"/><use transform="matrix(0.055555555555555546,0,0,0.055555555555555546,4.388888888888888,0)" xlink:href="#bZ"/><use transform="matrix(0.055555555555555546,0,0,0.055555555555555546,15.499999999999996,0)" xlink:href="#ca"/><use transform="matrix(0.055555555555555546,0,0,0.055555555555555546,21.05555555555555,0)" xlink:href="#dq"/></g><path fill="#834187" d="M210-169c-67 3-38 105-44 169h-31v-121c0-29-5-50-35-48C34-165 62-65 56 0H25l-1-190h30c1 10-1 24 2 32 10-44 99-50 107 0 11-21 27-35 58-36 85-2 47 119 55 194h-31v-121c0-29-5-49-35-48" id="dr"/><path fill="#834187" d="M115-194c55 1 70 41 70 98S169 2 115 4C84 4 66-9 55-30l1 105H24l-1-265h31l2 30c10-21 28-34 59-34zm-8 174c40 0 45-34 45-75s-6-73-45-74c-42 0-51 32-51 76 0 43 10 73 51 73" id="ds"/><g id="Z"><use transform="matrix(0.055555555555555546,0,0,0.055555555555555546,0,0)" xlink:href="#dr"/><use transform="matrix(0.055555555555555546,0,0,0.055555555555555546,16.611111111111107,0)" xlink:href="#bW"/><use transform="matrix(0.055555555555555546,0,0,0.055555555555555546,27.722222222222214,0)" xlink:href="#dl"/><use transform="matrix(0.055555555555555546,0,0,0.055555555555555546,32.1111111111111,0)" xlink:href="#ca"/><use transform="matrix(0.055555555555555546,0,0,0.055555555555555546,37.66666666666666,0)" xlink:href="#dm"/><use transform="matrix(0.055555555555555546,0,0,0.055555555555555546,42.05555555555554,0)" xlink:href="#ds"/><use transform="matrix(0.055555555555555546,0,0,0.055555555555555546,53.16666666666665,0)" xlink:href="#dl"/><use transform="matrix(0.055555555555555546,0,0,0.055555555555555546,57.555555555555536,0)" xlink:href="#bY"/></g><g id="aa"><use transform="matrix(0.055555555555555546,0,0,0.055555555555555546,0,0)" xlink:href="#bW"/><use transform="matrix(0.055555555555555546,0,0,0.055555555555555546,11.111111111111109,0)" xlink:href="#bZ"/><use transform="matrix(0.055555555555555546,0,0,0.055555555555555546,22.222222222222218,0)" xlink:href="#dm"/><use transform="matrix(0.055555555555555546,0,0,0.055555555555555546,26.611111111111107,0)" xlink:href="#dn"/><use transform="matrix(0.055555555555555546,0,0,0.055555555555555546,36.61111111111111,0)" xlink:href="#cc"/><use transform="matrix(0.055555555555555546,0,0,0.055555555555555546,47.722222222222214,0)" xlink:href="#bX"/><use transform="matrix(0.055555555555555546,0,0,0.055555555555555546,54.33333333333332,0)" xlink:href="#dm"/><use transform="matrix(0.055555555555555546,0,0,0.055555555555555546,58.722222222222214,0)" xlink:href="#cc"/><use transform="matrix(0.055555555555555546,0,0,0.055555555555555546,69.83333333333331,0)" xlink:href="#ca"/><use transform="matrix(0.055555555555555546,0,0,0.055555555555555546,75.38888888888887,0)" xlink:href="#bY"/></g><g id="ab"><use transform="matrix(0.055555555555555546,0,0,0.055555555555555546,0,0)" xlink:href="#do"/><use transform="matrix(0.055555555555555546,0,0,0.055555555555555546,12.166666666666664,0)" xlink:href="#dp"/></g><path fill="#19967d" d="M240 0l2-218c-23 76-54 145-80 218h-23L58-218 59 0H30v-248h44l77 211c21-75 51-140 76-211h43V0h-30" id="dt"/><path fill="#19967d" d="M108 0H70L1-190h34L89-25l56-165h34" id="du"/><path fill="#19967d" d="M141-36C126-15 110 5 73 4 37 3 15-17 15-53c-1-64 63-63 125-63 3-35-9-54-41-54-24 1-41 7-42 31l-33-3c5-37 33-52 76-52 45 0 72 20 72 64v82c-1 20 7 32 28 27v20c-31 9-61-2-59-35zM48-53c0 20 12 33 32 33 41-3 63-29 60-74-43 2-92-5-92 41" id="dv"/><g id="ac"><use transform="matrix(0.055555555555555546,0,0,0.055555555555555546,0,0)" xlink:href="#dt"/><use transform="matrix(0.055555555555555546,0,0,0.055555555555555546,16.611111111111107,0)" xlink:href="#bi"/><use transform="matrix(0.055555555555555546,0,0,0.055555555555555546,27.722222222222214,0)" xlink:href="#bh"/><use transform="matrix(0.055555555555555546,0,0,0.055555555555555546,32.1111111111111,0)" xlink:href="#bp"/><use transform="matrix(0.055555555555555546,0,0,0.055555555555555546,37.66666666666666,0)" xlink:href="#br"/><use transform="matrix(0.055555555555555546,0,0,0.055555555555555546,42.05555555555554,0)" xlink:href="#du"/><use transform="matrix(0.055555555555555546,0,0,0.055555555555555546,52.05555555555554,0)" xlink:href="#dv"/><use transform="matrix(0.055555555555555546,0,0,0.055555555555555546,63.16666666666666,0)" xlink:href="#bq"/><use transform="matrix(0.055555555555555546,0,0,0.055555555555555546,69.77777777777776,0)" xlink:href="#br"/><use transform="matrix(0.055555555555555546,0,0,0.055555555555555546,74.16666666666664,0)" xlink:href="#dv"/><use transform="matrix(0.055555555555555546,0,0,0.055555555555555546,85.27777777777776,0)" xlink:href="#bp"/><use transform="matrix(0.055555555555555546,0,0,0.055555555555555546,90.83333333333331,0)" xlink:href="#bn"/></g><path fill="#19967d" d="M127-220V0H93v-220H8v-28h204v28h-85" id="dw"/><g id="ad"><use transform="matrix(0.055555555555555546,0,0,0.055555555555555546,0,0)" xlink:href="#dw"/><use transform="matrix(0.055555555555555546,0,0,0.055555555555555546,12.166666666666664,0)" xlink:href="#bo"/></g><path fill="#19967d" d="M85-194c31 0 48 13 60 33l-1-100h32l1 261h-30c-2-10 0-23-3-31C134-8 116 4 85 4 32 4 16-35 15-94c0-66 23-100 70-100zm9 24c-40 0-46 34-46 75 0 40 6 74 45 74 42 0 51-32 51-76 0-42-9-74-50-73" id="dx"/><g id="ae"><use transform="matrix(0.055555555555555546,0,0,0.055555555555555546,0,0)" xlink:href="#bj"/><use transform="matrix(0.055555555555555546,0,0,0.055555555555555546,16.611111111111107,0)" xlink:href="#dv"/><use transform="matrix(0.055555555555555546,0,0,0.055555555555555546,27.722222222222214,0)" xlink:href="#ct"/><use transform="matrix(0.055555555555555546,0,0,0.055555555555555546,38.83333333333332,0)" xlink:href="#ct"/><use transform="matrix(0.055555555555555546,0,0,0.055555555555555546,49.94444444444443,0)" xlink:href="#bn"/><use transform="matrix(0.055555555555555546,0,0,0.055555555555555546,61.05555555555553,0)" xlink:href="#dx"/></g><g id="af"><use transform="matrix(0.055555555555555546,0,0,0.055555555555555546,0,0)" xlink:href="#bp"/><use transform="matrix(0.055555555555555546,0,0,0.055555555555555546,5.5555555555555545,0)" xlink:href="#bg"/></g><path fill="#19967d" d="M16-82v-28h88v28H16" id="dy"/><g id="ag"><use transform="matrix(0.055555555555555546,0,0,0.055555555555555546,0,0)" xlink:href="#bf"/><use transform="matrix(0.055555555555555546,0,0,0.055555555555555546,9.999999999999998,0)" xlink:href="#bg"/><use transform="matrix(0.055555555555555546,0,0,0.055555555555555546,21.111111111111107,0)" xlink:href="#bh"/><use transform="matrix(0.055555555555555546,0,0,0.055555555555555546,25.499999999999996,0)" xlink:href="#bi"/><use transform="matrix(0.055555555555555546,0,0,0.055555555555555546,36.61111111111111,0)" xlink:href="#bj"/><use transform="matrix(0.055555555555555546,0,0,0.055555555555555546,53.222222222222214,0)" xlink:href="#bk"/><use transform="matrix(0.055555555555555546,0,0,0.055555555555555546,64.33333333333333,0)" xlink:href="#dv"/><use transform="matrix(0.055555555555555546,0,0,0.055555555555555546,75.44444444444444,0)" xlink:href="#bq"/><use transform="matrix(0.055555555555555546,0,0,0.055555555555555546,82.05555555555556,0)" xlink:href="#dy"/><use transform="matrix(0.055555555555555546,0,0,0.055555555555555546,88.66666666666667,0)" xlink:href="#bg"/><use transform="matrix(0.055555555555555546,0,0,0.055555555555555546,99.77777777777779,0)" xlink:href="#bq"/><use transform="matrix(0.055555555555555546,0,0,0.055555555555555546,106.3888888888889,0)" xlink:href="#br"/><use transform="matrix(0.055555555555555546,0,0,0.055555555555555546,110.77777777777779,0)" xlink:href="#bn"/><use transform="matrix(0.055555555555555546,0,0,0.055555555555555546,121.88888888888889,0)" xlink:href="#bk"/><use transform="matrix(0.055555555555555546,0,0,0.055555555555555546,133,0)" xlink:href="#bp"/><use transform="matrix(0.055555555555555546,0,0,0.055555555555555546,138.55555555555554,0)" xlink:href="#bn"/><use transform="matrix(0.055555555555555546,0,0,0.055555555555555546,149.66666666666666,0)" xlink:href="#dx"/></g><g id="ah"><use transform="matrix(0.055555555555555546,0,0,0.055555555555555546,0,0)" xlink:href="#bn"/><use transform="matrix(0.055555555555555546,0,0,0.055555555555555546,11.111111111111109,0)" xlink:href="#du"/><use transform="matrix(0.055555555555555546,0,0,0.055555555555555546,21.111111111111107,0)" xlink:href="#bn"/><use transform="matrix(0.055555555555555546,0,0,0.055555555555555546,32.222222222222214,0)" xlink:href="#bk"/><use transform="matrix(0.055555555555555546,0,0,0.055555555555555546,43.33333333333332,0)" xlink:href="#bp"/></g><path fill="#0c7cba" d="M240 0l2-218c-23 76-54 145-80 218h-23L58-218 59 0H30v-248h44l77 211c21-75 51-140 76-211h43V0h-30" id="dz"/><path fill="#0c7cba" d="M24 0v-261h32V0H24" id="dA"/><path fill="#0c7cba" d="M108 0H70L1-190h34L89-25l56-165h34" id="dB"/><g id="ai"><use transform="matrix(0.055555555555555546,0,0,0.055555555555555546,0,0)" xlink:href="#dz"/><use transform="matrix(0.055555555555555546,0,0,0.055555555555555546,16.611111111111107,0)" xlink:href="#bz"/><use transform="matrix(0.055555555555555546,0,0,0.055555555555555546,27.722222222222214,0)" xlink:href="#dA"/><use transform="matrix(0.055555555555555546,0,0,0.055555555555555546,32.1111111111111,0)" xlink:href="#bE"/><use transform="matrix(0.055555555555555546,0,0,0.055555555555555546,37.66666666666666,0)" xlink:href="#cH"/><use transform="matrix(0.055555555555555546,0,0,0.055555555555555546,42.05555555555554,0)" xlink:href="#dB"/><use transform="matrix(0.055555555555555546,0,0,0.055555555555555546,52.05555555555554,0)" xlink:href="#cE"/><use transform="matrix(0.055555555555555546,0,0,0.055555555555555546,63.16666666666666,0)" xlink:href="#bv"/><use transform="matrix(0.055555555555555546,0,0,0.055555555555555546,69.77777777777776,0)" xlink:href="#cH"/><use transform="matrix(0.055555555555555546,0,0,0.055555555555555546,74.16666666666664,0)" xlink:href="#cE"/><use transform="matrix(0.055555555555555546,0,0,0.055555555555555546,85.27777777777776,0)" xlink:href="#bE"/><use transform="matrix(0.055555555555555546,0,0,0.055555555555555546,90.83333333333331,0)" xlink:href="#bB"/></g><path fill="#0c7cba" d="M127-220V0H93v-220H8v-28h204v28h-85" id="dC"/><path fill="#0c7cba" d="M185-189c-5-48-123-54-124 2 14 75 158 14 163 119 3 78-121 87-175 55-17-10-28-26-33-46l33-7c5 56 141 63 141-1 0-78-155-14-162-118-5-82 145-84 179-34 5 7 8 16 11 25" id="dD"/><g id="aj"><use transform="matrix(0.055555555555555546,0,0,0.055555555555555546,0,0)" xlink:href="#dC"/><use transform="matrix(0.055555555555555546,0,0,0.055555555555555546,12.166666666666664,0)" xlink:href="#dD"/></g><g id="ak"><use transform="matrix(0.055555555555555546,0,0,0.055555555555555546,0,0)" xlink:href="#cF"/><use transform="matrix(0.055555555555555546,0,0,0.055555555555555546,16.611111111111107,0)" xlink:href="#cE"/><use transform="matrix(0.055555555555555546,0,0,0.055555555555555546,27.722222222222214,0)" xlink:href="#cJ"/><use transform="matrix(0.055555555555555546,0,0,0.055555555555555546,38.83333333333332,0)" xlink:href="#cJ"/><use transform="matrix(0.055555555555555546,0,0,0.055555555555555546,49.94444444444443,0)" xlink:href="#bB"/><use transform="matrix(0.055555555555555546,0,0,0.055555555555555546,61.05555555555553,0)" xlink:href="#cG"/></g><g id="al"><use transform="matrix(0.055555555555555546,0,0,0.055555555555555546,0,0)" xlink:href="#bE"/><use transform="matrix(0.055555555555555546,0,0,0.055555555555555546,5.5555555555555545,0)" xlink:href="#bw"/></g><path fill="#0c7cba" d="M96-169c-40 0-48 33-48 73s9 75 48 75c24 0 41-14 43-38l32 2c-6 37-31 61-74 61-59 0-76-41-82-99-10-93 101-131 147-64 4 7 5 14 7 22l-32 3c-4-21-16-35-41-35" id="dE"/><path fill="#0c7cba" d="M16-82v-28h88v28H16" id="dF"/><g id="am"><use transform="matrix(0.055555555555555546,0,0,0.055555555555555546,0,0)" xlink:href="#dE"/><use transform="matrix(0.055555555555555546,0,0,0.055555555555555546,9.999999999999998,0)" xlink:href="#bw"/><use transform="matrix(0.055555555555555546,0,0,0.055555555555555546,21.111111111111107,0)" xlink:href="#dA"/><use transform="matrix(0.055555555555555546,0,0,0.055555555555555546,25.499999999999996,0)" xlink:href="#bz"/><use transform="matrix(0.055555555555555546,0,0,0.055555555555555546,36.61111111111111,0)" xlink:href="#cF"/><use transform="matrix(0.055555555555555546,0,0,0.055555555555555546,53.222222222222214,0)" xlink:href="#cI"/><use transform="matrix(0.055555555555555546,0,0,0.055555555555555546,64.33333333333333,0)" xlink:href="#cE"/><use transform="matrix(0.055555555555555546,0,0,0.055555555555555546,75.44444444444444,0)" xlink:href="#bv"/><use transform="matrix(0.055555555555555546,0,0,0.055555555555555546,82.05555555555556,0)" xlink:href="#dF"/><use transform="matrix(0.055555555555555546,0,0,0.055555555555555546,88.66666666666667,0)" xlink:href="#bw"/><use transform="matrix(0.055555555555555546,0,0,0.055555555555555546,99.77777777777779,0)" xlink:href="#bv"/><use transform="matrix(0.055555555555555546,0,0,0.055555555555555546,106.3888888888889,0)" xlink:href="#cH"/><use transform="matrix(0.055555555555555546,0,0,0.055555555555555546,110.77777777777779,0)" xlink:href="#bB"/><use transform="matrix(0.055555555555555546,0,0,0.055555555555555546,121.88888888888889,0)" xlink:href="#cI"/><use transform="matrix(0.055555555555555546,0,0,0.055555555555555546,133,0)" xlink:href="#bE"/><use transform="matrix(0.055555555555555546,0,0,0.055555555555555546,138.55555555555554,0)" xlink:href="#bB"/><use transform="matrix(0.055555555555555546,0,0,0.055555555555555546,149.66666666666666,0)" xlink:href="#cG"/></g><g id="an"><use transform="matrix(0.055555555555555546,0,0,0.055555555555555546,0,0)" xlink:href="#bB"/><use transform="matrix(0.055555555555555546,0,0,0.055555555555555546,11.111111111111109,0)" xlink:href="#dB"/><use transform="matrix(0.055555555555555546,0,0,0.055555555555555546,21.111111111111107,0)" xlink:href="#bB"/><use transform="matrix(0.055555555555555546,0,0,0.055555555555555546,32.222222222222214,0)" xlink:href="#cI"/><use transform="matrix(0.055555555555555546,0,0,0.055555555555555546,43.33333333333332,0)" xlink:href="#bE"/></g><path fill="#999" d="M205 0l-28-72H64L36 0H1l101-248h38L239 0h-34zm-38-99l-47-123c-12 45-31 82-46 123h93" id="dG"/><path fill="#999" d="M30 0v-248h33v221h125V0H30" id="dH"/><path fill="#999" d="M127-220V0H93v-220H8v-28h204v28h-85" id="dI"/><path fill="#999" d="M30 0v-248h187v28H63v79h144v27H63v87h162V0H30" id="dJ"/><path fill="#999" d="M233-177c-1 41-23 64-60 70L243 0h-38l-65-103H63V0H30v-248c88 3 205-21 203 71zM63-129c60-2 137 13 137-47 0-61-80-42-137-45v92" id="dK"/><path fill="#999" d="M190 0L58-211 59 0H30v-248h39L202-35l-2-213h31V0h-41" id="dL"/><path fill="#999" d="M33 0v-248h34V0H33" id="dM"/><path fill="#999" d="M137 0h-34L2-248h35l83 218 83-218h36" id="dN"/><path fill="#999" d="M185-189c-5-48-123-54-124 2 14 75 158 14 163 119 3 78-121 87-175 55-17-10-28-26-33-46l33-7c5 56 141 63 141-1 0-78-155-14-162-118-5-82 145-84 179-34 5 7 8 16 11 25" id="dO"/><g id="ao"><use transform="matrix(0.06172839506172839,0,0,0.06172839506172839,0,0)" xlink:href="#dG"/><use transform="matrix(0.06172839506172839,0,0,0.06172839506172839,14.814814814814813,0)" xlink:href="#dH"/><use transform="matrix(0.06172839506172839,0,0,0.06172839506172839,25.493827160493826,0)" xlink:href="#dI"/><use transform="matrix(0.06172839506172839,0,0,0.06172839506172839,39.01234567901234,0)" xlink:href="#dJ"/><use transform="matrix(0.06172839506172839,0,0,0.06172839506172839,53.82716049382715,0)" xlink:href="#dK"/><use transform="matrix(0.06172839506172839,0,0,0.06172839506172839,69.81481481481481,0)" xlink:href="#dL"/><use transform="matrix(0.06172839506172839,0,0,0.06172839506172839,85.80246913580247,0)" xlink:href="#dG"/><use transform="matrix(0.06172839506172839,0,0,0.06172839506172839,98.9506172839506,0)" xlink:href="#dI"/><use transform="matrix(0.06172839506172839,0,0,0.06172839506172839,112.46913580246913,0)" xlink:href="#dM"/><use transform="matrix(0.06172839506172839,0,0,0.06172839506172839,118.64197530864196,0)" xlink:href="#dN"/><use transform="matrix(0.06172839506172839,0,0,0.06172839506172839,133.45679012345678,0)" xlink:href="#dJ"/><use transform="matrix(0.06172839506172839,0,0,0.06172839506172839,148.2716049382716,0)" xlink:href="#dO"/></g></defs></g></svg>